<svg width="47" height="48" viewBox="0 0 47 48" fill="none" xmlns="http://www.w3.org/2000/svg">
<path d="M7.15952 9.70886C6.88112 9.43046 6.88112 9.01286 7.15952 8.73446L7.20592 8.68806L11.2427 5.57926C11.3819 5.48646 11.5211 5.44006 11.6603 5.44006H26.8795C27.2507 5.44006 27.5755 5.76486 27.5755 6.13606V11.2401C27.5755 11.6113 27.2507 11.9361 26.8795 11.9361H22.6571L26.0907 16.9009C26.3227 17.2257 26.2299 17.6433 25.9051 17.8753C25.5803 18.1073 25.1627 18.0145 24.9307 17.6897L20.9867 11.9825L17.8315 13.4673V16.5761H19.3627C19.5947 16.5761 19.8267 16.6689 19.9195 16.9009L29.2923 30.8209C29.3851 30.9137 29.4315 31.0529 29.3851 31.1921V41.8641C29.3851 42.2353 29.0603 42.5601 28.6891 42.5601H9.66512C9.29392 42.5601 8.96912 42.2353 8.96912 41.8641V17.2721C8.96912 16.9009 9.29392 16.5761 9.66512 16.5761H11.3355V13.9313L7.15952 9.70886ZM28.0395 41.1681V32.3521H10.4075V41.1681H28.0395ZM10.4075 30.9601H27.7147L18.9915 17.9681H10.4075V30.9601ZM16.4395 16.5761V13.0033C16.4395 12.7249 16.5787 12.4929 16.8571 12.4001L20.5691 10.6369C20.6619 10.5905 20.7547 10.5905 20.8475 10.5905H26.1835V6.83206H11.9387L8.73712 9.29126L12.5419 13.1425C12.6811 13.2817 12.7275 13.4673 12.7275 13.6529V16.5761H16.4395Z" fill="#FF772B"/>
<path d="M31.9836 11.008C31.3429 11.008 30.8236 10.4886 30.8236 9.84799C30.8236 9.20734 31.3429 8.68799 31.9836 8.68799C32.6242 8.68799 33.1436 9.20734 33.1436 9.84799C33.1436 10.4886 32.6242 11.008 31.9836 11.008Z" fill="#FF772B"/>
<path d="M36.1598 14.256C35.5192 14.256 34.9998 13.7367 34.9998 13.096C34.9998 12.4554 35.5192 11.936 36.1598 11.936C36.8005 11.936 37.3198 12.4554 37.3198 13.096C37.3198 13.7367 36.8005 14.256 36.1598 14.256Z" fill="#FF772B"/>
<path d="M36.1598 8.22405C35.5192 8.22405 34.9998 7.7047 34.9998 7.06405C34.9998 6.4234 35.5192 5.90405 36.1598 5.90405C36.8005 5.90405 37.3198 6.4234 37.3198 7.06405C37.3198 7.7047 36.8005 8.22405 36.1598 8.22405Z" fill="#FF772B"/>
</svg>
