<svg width="42" height="42" viewBox="0 0 42 42" fill="none" xmlns="http://www.w3.org/2000/svg">
<path d="M40.3373 16.342C40.1509 15.7635 39.808 15.2479 39.3466 14.8522C38.8852 14.4565 38.3233 14.1963 37.7232 14.1002L28.3056 12.5697L23.9398 4.08603C23.6618 3.54595 23.2403 3.0929 22.7216 2.7766C22.203 2.4603 21.6073 2.29297 20.9998 2.29297C20.3923 2.29297 19.7966 2.4603 19.278 2.7766C18.7593 3.0929 18.3379 3.54595 18.0598 4.08603L13.6941 12.5697L4.27661 14.1002C3.67704 14.1978 3.11594 14.4586 2.65486 14.8541C2.19379 15.2496 1.85056 15.7645 1.66284 16.3422C1.47512 16.9199 1.45016 17.5382 1.5907 18.1292C1.73123 18.7201 2.03184 19.261 2.45954 19.6924L9.17891 26.466L7.72453 35.8955C7.63121 36.4961 7.70533 37.1108 7.93875 37.672C8.17216 38.2332 8.55582 38.7191 9.04754 39.0764C9.53926 39.4336 10.12 39.6483 10.7258 39.6969C11.3317 39.7455 11.9392 39.626 12.4816 39.3517L20.9998 35.0544L29.5183 39.3517C30.0607 39.6255 30.6681 39.7445 31.2737 39.6957C31.8793 39.6468 32.4598 39.4321 32.9513 39.075C33.4428 38.7178 33.8265 38.2321 34.06 37.6712C34.2936 37.1104 34.3681 36.4959 34.2753 35.8955L32.8209 26.466L39.5403 19.6924C39.9694 19.2618 40.2709 18.721 40.4116 18.1297C40.5522 17.5383 40.5265 16.9196 40.3373 16.342V16.342ZM37.6942 17.8614L30.0511 25.5663L31.7056 36.2921C31.7261 36.4205 31.7107 36.5521 31.661 36.6723C31.6113 36.7926 31.5293 36.8967 31.424 36.9731C31.3188 37.0496 31.1944 37.0954 31.0647 37.1055C30.9351 37.1156 30.8051 37.0897 30.6893 37.0305L20.9998 32.1423L11.3103 37.0306C11.1944 37.0898 11.0645 37.1158 10.9348 37.1057C10.8051 37.0956 10.6808 37.0497 10.5755 36.9733C10.4703 36.8968 10.3883 36.7927 10.3386 36.6725C10.2888 36.5523 10.2734 36.4207 10.2939 36.2922L11.9486 25.5663L4.30545 17.8613C4.21418 17.7691 4.15005 17.6535 4.12008 17.5273C4.09011 17.4011 4.09547 17.269 4.13556 17.1456C4.17565 17.0222 4.24893 16.9122 4.34738 16.8277C4.44582 16.7432 4.56562 16.6874 4.69367 16.6665L15.4057 14.9256L20.3717 5.27577C20.431 5.16034 20.5211 5.06351 20.6319 4.9959C20.7427 4.92829 20.87 4.89252 20.9998 4.89252C21.1296 4.89252 21.2569 4.92829 21.3677 4.9959C21.4785 5.06351 21.5686 5.16034 21.6279 5.27577L26.5939 14.9256L37.3059 16.6665C37.434 16.6874 37.5538 16.7432 37.6522 16.8277C37.7507 16.9122 37.824 17.0222 37.8641 17.1456C37.9041 17.269 37.9095 17.4011 37.8795 17.5273C37.8496 17.6535 37.7854 17.7691 37.6942 17.8613L37.6942 17.8614Z" fill="#FF772B"/>
</svg>
