<svg width="23" height="24" viewBox="0 0 23 24" fill="none" xmlns="http://www.w3.org/2000/svg">
<path d="M19.4386 6.25787C18.6848 4.73352 16.5132 3.48632 13.9872 4.21247C12.7801 4.55599 11.727 5.29269 10.9999 6.30221C10.2727 5.29269 9.2196 4.55599 8.01256 4.21247C5.48094 3.49741 3.315 4.73352 2.56113 6.25787C1.50348 8.39195 1.94229 10.7921 3.86633 13.3918C5.37405 15.4261 7.52874 17.4882 10.6567 19.8828C10.7556 19.9587 10.8773 20 11.0027 20C11.1281 20 11.2498 19.9587 11.3487 19.8828C14.471 17.4937 16.6313 15.4483 18.1391 13.3918C20.0575 10.7921 20.4963 8.39195 19.4386 6.25787Z" stroke="#FF772B" stroke-width="2"/>
</svg>
