<svg width="22" height="22" viewBox="0 0 22 22" fill="none" xmlns="http://www.w3.org/2000/svg">
<path d="M2.90729 6.99273C4.82899 5.34273 6.34699 4.03813 10.4665 6.36573C12.4454 7.48333 14.0415 7.90573 15.3692 7.90353C17.6957 7.90353 19.2038 6.60993 20.5073 5.49123C20.731 5.29659 20.8702 5.02247 20.8952 4.72698C20.9203 4.43149 20.8293 4.13786 20.6415 3.90833C20.5499 3.7957 20.4366 3.70258 20.3084 3.63448C20.1802 3.56639 20.0396 3.5247 19.895 3.51188C19.7504 3.49906 19.6047 3.51537 19.4665 3.55985C19.3283 3.60433 19.2005 3.67607 19.0905 3.77083C17.1699 5.42303 15.6508 6.72763 11.5313 4.39783C6.08849 1.32553 3.53869 3.51453 1.49049 5.27453C1.26692 5.46932 1.12798 5.74352 1.10314 6.039C1.07829 6.33449 1.16948 6.62804 1.35739 6.85743C1.44904 6.96987 1.56232 7.06278 1.69052 7.13066C1.81872 7.19854 1.95923 7.24002 2.10374 7.25263C2.24826 7.26525 2.39383 7.24875 2.53185 7.2041C2.66987 7.15946 2.79754 7.08758 2.90729 6.99273ZM19.0905 9.38853C17.1699 11.0385 15.6508 12.3453 11.5313 10.0155C6.08849 6.94103 3.53869 9.13113 1.49049 10.89C1.26692 11.0848 1.12798 11.359 1.10314 11.6545C1.07829 11.95 1.16948 12.2435 1.35739 12.4729C1.44889 12.5855 1.56204 12.6786 1.69016 12.7467C1.81828 12.8148 1.95876 12.8565 2.10327 12.8693C2.24779 12.8821 2.39341 12.8658 2.53152 12.8213C2.66962 12.7769 2.7974 12.7052 2.90729 12.6104C4.82899 10.9593 6.34699 9.65473 10.4665 11.9812C12.4454 13.101 14.0415 13.5212 15.3692 13.5212C17.6957 13.5212 19.2038 12.2276 20.5073 11.1067C20.7312 10.9124 20.8705 10.6385 20.8955 10.3431C20.9206 10.0477 20.8295 9.75417 20.6415 9.52493C20.5499 9.41225 20.4366 9.3191 20.3084 9.25102C20.1801 9.18294 20.0395 9.1413 19.8948 9.12858C19.7502 9.11586 19.6045 9.13231 19.4663 9.17697C19.3281 9.22162 19.2003 9.29356 19.0905 9.38853ZM19.0905 15.0051C17.1699 16.6573 15.6508 17.9619 11.5313 15.6343C6.08849 12.5598 3.53869 14.7488 1.49049 16.5088C1.26692 16.7036 1.12798 16.9778 1.10314 17.2733C1.07829 17.5688 1.16948 17.8623 1.35739 18.0917C1.44895 18.2043 1.5622 18.2973 1.6904 18.3653C1.8186 18.4333 1.95915 18.4748 2.1037 18.4874C2.24826 18.5 2.39388 18.4835 2.53192 18.4388C2.66996 18.394 2.7976 18.322 2.90729 18.227C4.82899 16.577 6.34699 15.2735 10.4665 17.6C12.4454 18.7176 14.0415 19.14 15.3692 19.14C17.6957 19.14 19.2038 17.8442 20.5073 16.7255C20.731 16.5309 20.8702 16.2568 20.8952 15.9613C20.9203 15.6658 20.8293 15.3722 20.6415 15.1426C20.5498 15.0301 20.4365 14.9371 20.3083 14.8691C20.1801 14.8011 20.0396 14.7595 19.895 14.7467C19.7504 14.7338 19.6048 14.7501 19.4666 14.7945C19.3284 14.8389 19.2005 14.9105 19.0905 15.0051Z" fill="#FF772B"/>
</svg>
