<svg id="Layer_1" data-name="Layer 1" xmlns="http://www.w3.org/2000/svg" viewBox="0 0 16.5 16.5"><defs><style>.cls-1{fill-rule:evenodd;}</style></defs><path class="cls-1" d="M5.25,0A.76.76,0,0,1,6,.75V1.5h4.5V.75a.75.75,0,0,1,1.5,0V1.5h.75A3.75,3.75,0,0,1,16.5,5.25v7.5a3.75,3.75,0,0,1-3.75,3.75h-9A3.75,3.75,0,0,1,0,12.75V5.25A3.75,3.75,0,0,1,3.75,1.5H4.5V.75A.76.76,0,0,1,5.25,0ZM4.5,3H3.75A2.25,2.25,0,0,0,1.5,5.25V6H15V5.25A2.25,2.25,0,0,0,12.75,3H12v.75a.75.75,0,0,1-1.5,0V3H6v.75a.75.75,0,0,1-1.5,0ZM15,7.5H1.5v5.25A2.25,2.25,0,0,0,3.75,15h9A2.25,2.25,0,0,0,15,12.75Z"/></svg>