<svg id="Layer_1" data-name="Layer 1" xmlns="http://www.w3.org/2000/svg" viewBox="0 0 28 28"><path d="M16.33,22.17a1.19,1.19,0,0,0,.75-.27,1.12,1.12,0,0,0,.29-.36,1.26,1.26,0,0,0,.13-.43,1.41,1.41,0,0,0-.05-.46,1.31,1.31,0,0,0-.22-.4L12,14l5-6.26a1.25,1.25,0,0,0,.22-.41,1.15,1.15,0,0,0,0-.45,1.14,1.14,0,0,0-.14-.44,1.21,1.21,0,0,0-.29-.35,1.1,1.1,0,0,0-.42-.24,1.23,1.23,0,0,0-.47,0,1.07,1.07,0,0,0-.46.14,1.19,1.19,0,0,0-.35.32l-5.64,7a1.15,1.15,0,0,0-.26.74,1.17,1.17,0,0,0,.26.74l5.83,7a1.16,1.16,0,0,0,.44.32A1.09,1.09,0,0,0,16.33,22.17Z"/></svg>