<svg id="Layer_1" data-name="Layer 1" xmlns="http://www.w3.org/2000/svg" viewBox="0 0 11 11"><defs><style>.cls-1{fill-rule:evenodd;}</style></defs><path class="cls-1" d="M10.47,4.29a1.18,1.18,0,0,0-.65-.73,1.17,1.17,0,0,0-.49-.11H7.17V2.92A1.81,1.81,0,0,0,7,2.2a1.74,1.74,0,0,0-.41-.6A1.74,1.74,0,0,0,6,1.19a2,2,0,0,0-.72-.14.5.5,0,0,0-.45.27L3.27,4.48H1.52a.85.85,0,0,0-.85.85V9.11a.86.86,0,0,0,.25.6.87.87,0,0,0,.6.24h7.3a1.16,1.16,0,0,0,.78-.29,1.23,1.23,0,0,0,.4-.75l.51-4.12A1.2,1.2,0,0,0,10.47,4.29ZM3.08,9H1.67V5.48H3.08ZM9,8.79a.2.2,0,0,1-.06.12.17.17,0,0,1-.12,0H4.08V5.1l1.5-3,0,0a1,1,0,0,1,.29.19,1,1,0,0,1,.19.29.92.92,0,0,1,.06.33V4a.5.5,0,0,0,.5.5H9.33l.08,0a.15.15,0,0,1,.06,0,.16.16,0,0,1,0,.07.17.17,0,0,1,0,.07Z"/></svg>