<svg id="Layer_1" data-name="Layer 1" xmlns="http://www.w3.org/2000/svg" viewBox="0 0 26 26"><defs><style>.cls-1{fill-rule:evenodd;}</style></defs><path class="cls-1" d="M6.5,13a.8.8,0,0,1,.24-.57.78.78,0,0,1,.57-.24h9.42L13.24,8.7a.76.76,0,0,1-.18-.26A.85.85,0,0,1,13,8.13a.77.77,0,0,1,.24-.58.68.68,0,0,1,.26-.18.85.85,0,0,1,.31-.06.78.78,0,0,1,.31.06.8.8,0,0,1,.27.18l4.87,4.87a.8.8,0,0,1,.18.27.83.83,0,0,1,0,.62.8.8,0,0,1-.18.27l-4.87,4.87a.8.8,0,0,1-.27.18.78.78,0,0,1-.31.06.85.85,0,0,1-.31-.06.68.68,0,0,1-.26-.18.78.78,0,0,1-.24-.57.77.77,0,0,1,.24-.58l3.49-3.49H7.31a.78.78,0,0,1-.57-.24A.8.8,0,0,1,6.5,13Z"/></svg>