<svg id="Layer_1" data-name="Layer 1" xmlns="http://www.w3.org/2000/svg" viewBox="0 0 11 9.63"><defs><style>.cls-1{fill-rule:evenodd;}</style></defs><path class="cls-1" d="M0,4.81a.67.67,0,0,1,.2-.48.7.7,0,0,1,.49-.2h8L5.7,1.18A.91.91,0,0,1,5.55,1a.75.75,0,0,1,0-.26.86.86,0,0,1,0-.27A1.07,1.07,0,0,1,5.7.2.86.86,0,0,1,5.92.05a.86.86,0,0,1,.27,0,.75.75,0,0,1,.26.05A.86.86,0,0,1,6.67.2L10.8,4.33a.86.86,0,0,1,.15.22.75.75,0,0,1,.05.26.86.86,0,0,1-.05.27.86.86,0,0,1-.15.22L6.67,9.43a.64.64,0,0,1-.22.14.58.58,0,0,1-.26.06.66.66,0,0,1-.27-.06.64.64,0,0,1-.22-.14.7.7,0,0,1-.2-.49.86.86,0,0,1,0-.27,1.07,1.07,0,0,1,.15-.22l3-2.95h-8A.7.7,0,0,1,.2,5.3.68.68,0,0,1,0,4.81Z"/></svg>