<svg id="Layer_1" data-name="Layer 1" xmlns="http://www.w3.org/2000/svg" viewBox="0 0 11 11"><path d="M5.5,10.13A4.63,4.63,0,1,1,10.13,5.5,4.63,4.63,0,0,1,5.5,10.13Zm0-8.25A3.63,3.63,0,1,0,9.13,5.5,3.62,3.62,0,0,0,5.5,1.88Z"/><path d="M4,5.16a.52.52,0,1,0-.51-.52A.52.52,0,0,0,4,5.16Z"/><path d="M7.14,5.16a.52.52,0,1,0,0-1,.52.52,0,1,0,0,1Z"/><path d="M5.5,8.06a2.61,2.61,0,0,1-1.28-.34,2.57,2.57,0,0,1-.94-.94.49.49,0,0,1,.18-.68.51.51,0,0,1,.69.18,1.42,1.42,0,0,0,.57.57,1.55,1.55,0,0,0,1.56,0,1.42,1.42,0,0,0,.57-.57.51.51,0,0,1,.69-.18.49.49,0,0,1,.18.68,2.57,2.57,0,0,1-.94.94A2.61,2.61,0,0,1,5.5,8.06Z"/></svg>