<svg id="Layer_1" data-name="Layer 1" xmlns="http://www.w3.org/2000/svg" viewBox="0 0 9.71 19.29"><path d="M8.33,0a1.36,1.36,0,0,1,.88.32,1.4,1.4,0,0,1,.34.42,1.5,1.5,0,0,1,.15.51,1.25,1.25,0,0,1-.06.54,1.42,1.42,0,0,1-.25.47L3.23,9.63,9.17,17a1.38,1.38,0,0,1,.25.48,1.35,1.35,0,0,1,.05.53,1.57,1.57,0,0,1-.16.52A1.39,1.39,0,0,1,9,19a1.33,1.33,0,0,1-.49.28,1.51,1.51,0,0,1-.56.06,1.24,1.24,0,0,1-.53-.18A1.27,1.27,0,0,1,7,18.74L.31,10.49a1.38,1.38,0,0,1,0-1.74L7.19.5A1.39,1.39,0,0,1,7.7.11,1.5,1.5,0,0,1,8.33,0Z"/></svg>