<svg id="Layer_1" data-name="Layer 1" xmlns="http://www.w3.org/2000/svg" viewBox="0 0 34 34"><path d="M7.08,14.17a1.45,1.45,0,0,1,.33-.91,1.47,1.47,0,0,1,.43-.35,1.36,1.36,0,0,1,.53-.16,1.69,1.69,0,0,1,.55.06,1.57,1.57,0,0,1,.49.27L17,19.42l7.61-6.12A1.64,1.64,0,0,1,25.1,13a1.45,1.45,0,0,1,.55,0,1.38,1.38,0,0,1,.53.17,1.69,1.69,0,0,1,.71.86,1.42,1.42,0,0,1,.06.58,1.37,1.37,0,0,1-.18.55,1.21,1.21,0,0,1-.38.43l-8.5,6.85a1.45,1.45,0,0,1-.9.32,1.48,1.48,0,0,1-.9-.32l-8.5-7.09a1.43,1.43,0,0,1-.39-.52A1.47,1.47,0,0,1,7.08,14.17Z"/></svg>