<svg id="Layer_1" data-name="Layer 1" xmlns="http://www.w3.org/2000/svg" viewBox="0 0 11 11"><path d="M2.28,9.19H2.17a.72.72,0,0,1-.32-.11.82.82,0,0,1-.26-.23.92.92,0,0,1-.14-.3h0L.36,3.88a.8.8,0,0,1,0-.46.85.85,0,0,1,.69-.57.78.78,0,0,1,.45.07l2.05.91L4.76,1.67a.77.77,0,0,1,.31-.31.83.83,0,0,1,.86,0,.77.77,0,0,1,.31.31L7.43,3.83l2.05-.91a.78.78,0,0,1,.45-.07.93.93,0,0,1,.43.19.84.84,0,0,1,.26.38.8.8,0,0,1,0,.46L9.54,8.54a.73.73,0,0,1-.14.31.9.9,0,0,1-.25.22.76.76,0,0,1-.32.11,1,1,0,0,1-.34,0,11.18,11.18,0,0,0-6,0A.83.83,0,0,1,2.28,9.19ZM1.4,4l1,4.2a12.14,12.14,0,0,1,6.22,0L9.59,4,7.71,4.8a.91.91,0,0,1-.61,0,.87.87,0,0,1-.47-.39L5.5,2.4l-1.13,2a.87.87,0,0,1-.47.39.91.91,0,0,1-.61,0Zm5.9-.08Zm-6.18,0Zm8.55-.18Z"/></svg>