<svg id="Layer_1" data-name="Layer 1" xmlns="http://www.w3.org/2000/svg" viewBox="0 0 28 28"><path d="M11.67,22.17a1.19,1.19,0,0,1-.75-.27,1.12,1.12,0,0,1-.29-.36,1.26,1.26,0,0,1-.13-.43,1.41,1.41,0,0,1,.05-.46,1.31,1.31,0,0,1,.22-.4L16,14,11,7.74a1.25,1.25,0,0,1-.22-.41,1.15,1.15,0,0,1,0-.45,1.14,1.14,0,0,1,.14-.44,1.21,1.21,0,0,1,.29-.35,1.1,1.1,0,0,1,.42-.24,1.23,1.23,0,0,1,.47,0,1.07,1.07,0,0,1,.46.14,1.19,1.19,0,0,1,.35.32l5.64,7a1.15,1.15,0,0,1,.26.74,1.17,1.17,0,0,1-.26.74l-5.83,7a1.16,1.16,0,0,1-.44.32A1.09,1.09,0,0,1,11.67,22.17Z"/></svg>