<svg id="Layer_1" data-name="Layer 1" xmlns="http://www.w3.org/2000/svg" viewBox="0 0 48 48"><path d="M37.5,43h-27a2.49,2.49,0,0,1-1.77-.73A2.55,2.55,0,0,1,8,40.5V7.5A2.49,2.49,0,0,1,10.5,5h18a1,1,0,0,1,.71.29l10.5,10.5a1,1,0,0,1,.29.71v24A2.49,2.49,0,0,1,37.5,43ZM10.5,7a.51.51,0,0,0-.5.5v33a.51.51,0,0,0,.5.5h27a.51.51,0,0,0,.5-.5V16.91L28.09,7Z"/><path d="M39,17.5H28.5a1,1,0,0,1-1-1V6a1,1,0,0,1,2,0v9.5H39a1,1,0,0,1,0,2Z"/><path d="M30,26.5H18a1,1,0,0,1,0-2H30a1,1,0,0,1,0,2Z"/><path d="M30,32.5H18a1,1,0,0,1,0-2H30a1,1,0,0,1,0,2Z"/></svg>