<svg id="Layer_1" data-name="Layer 1" xmlns="http://www.w3.org/2000/svg" viewBox="0 0 24 24"><defs><style>.cls-1{fill-rule:evenodd;}</style></defs><path class="cls-1" d="M12,4c-2.17,0-2.44,0-3.3,0a5.85,5.85,0,0,0-1.94.37A4,4,0,0,0,4.42,6.76,5.85,5.85,0,0,0,4.05,8.7C4,9.56,4,9.83,4,12s0,2.44,0,3.3a5.85,5.85,0,0,0,.37,1.94,4,4,0,0,0,2.34,2.34A5.85,5.85,0,0,0,8.7,20c.86,0,1.13.05,3.3.05s2.44,0,3.3-.05a5.85,5.85,0,0,0,1.94-.37,4,4,0,0,0,2.34-2.34A5.85,5.85,0,0,0,20,15.3c0-.86.05-1.13.05-3.3S20,9.56,20,8.7a5.85,5.85,0,0,0-.37-1.94,4,4,0,0,0-2.34-2.34,5.85,5.85,0,0,0-1.94-.37C14.44,4,14.17,4,12,4Zm0,1.44c2.14,0,2.39,0,3.23,0a4.33,4.33,0,0,1,1.49.27,2.67,2.67,0,0,1,1.52,1.52,4.33,4.33,0,0,1,.27,1.49c0,.84,0,1.09,0,3.23s0,2.39,0,3.23a4.33,4.33,0,0,1-.27,1.49,2.67,2.67,0,0,1-1.52,1.52,4.33,4.33,0,0,1-1.49.27c-.84,0-1.09,0-3.23,0s-2.39,0-3.23,0a4.33,4.33,0,0,1-1.49-.27,2.67,2.67,0,0,1-1.52-1.52,4.33,4.33,0,0,1-.27-1.49c0-.84,0-1.09,0-3.23s0-2.39,0-3.23a4.33,4.33,0,0,1,.27-1.49A2.67,2.67,0,0,1,7.28,5.76a4.33,4.33,0,0,1,1.49-.27C9.61,5.45,9.86,5.44,12,5.44Zm0,9.23a2.66,2.66,0,1,1,1.89-.78A2.67,2.67,0,0,1,12,14.67Zm0-6.78a4.22,4.22,0,0,0-1.57.31A4.24,4.24,0,0,0,8.2,10.43a4.13,4.13,0,0,0,0,3.14,4.24,4.24,0,0,0,2.23,2.23,4.22,4.22,0,0,0,1.57.31,4.11,4.11,0,0,0,0-8.22Zm5.23-.16a.94.94,0,0,1-.07.37,1,1,0,0,1-.52.52,1,1,0,0,1-.74,0,1,1,0,0,1-.52-.52,1.16,1.16,0,0,1-.07-.37,1,1,0,0,1,.28-.68,1,1,0,0,1,1.36,0A1,1,0,0,1,17.23,7.73Z"/></svg>