<svg id="Layer_1" data-name="Layer 1" xmlns="http://www.w3.org/2000/svg" viewBox="0 0 24 23"><defs><style>.cls-1{fill-rule:evenodd;}</style></defs><path class="cls-1" d="M12.43,1.92c-2.61,0-2.93,0-3.95.05a7.06,7.06,0,0,0-2.33.45,4.79,4.79,0,0,0-1.7,1.1,4.66,4.66,0,0,0-1.1,1.7A7.06,7.06,0,0,0,2.9,7.55c0,1-.06,1.35-.06,4s0,2.93.06,3.95a7.06,7.06,0,0,0,.45,2.33,4.66,4.66,0,0,0,1.1,1.7,4.79,4.79,0,0,0,1.7,1.1A7.06,7.06,0,0,0,8.48,21c1,0,1.34,0,3.95,0s2.92,0,3.95,0a7,7,0,0,0,2.32-.45,4.79,4.79,0,0,0,1.7-1.1,4.69,4.69,0,0,0,1.11-1.7A7.09,7.09,0,0,0,22,15.45c.05-1,.06-1.35.06-3.95S22,8.57,22,7.55a7.09,7.09,0,0,0-.44-2.33,4.69,4.69,0,0,0-1.11-1.7,4.79,4.79,0,0,0-1.7-1.1A7,7,0,0,0,16.38,2C15.35,1.93,15,1.92,12.43,1.92Zm0,1.72c2.55,0,2.86,0,3.87.06A5.31,5.31,0,0,1,18.08,4a2.81,2.81,0,0,1,1.1.72,2.92,2.92,0,0,1,.72,1.1,5.52,5.52,0,0,1,.33,1.78c0,1,.05,1.31.05,3.87s0,2.86-.05,3.87a5.52,5.52,0,0,1-.33,1.78,3,3,0,0,1-.72,1.1,2.81,2.81,0,0,1-1.1.72,5.31,5.31,0,0,1-1.78.33c-1,.05-1.31.06-3.87.06s-2.87,0-3.88-.06A5.31,5.31,0,0,1,6.77,19a3,3,0,0,1-1.1-.72A2.86,2.86,0,0,1,5,17.15a5,5,0,0,1-.33-1.78c0-1-.06-1.31-.06-3.87s0-2.86.06-3.87A5,5,0,0,1,5,5.85a2.9,2.9,0,0,1,.71-1.1A3,3,0,0,1,6.77,4,5.31,5.31,0,0,1,8.55,3.7C9.56,3.65,9.87,3.64,12.43,3.64Zm0,11a3.19,3.19,0,1,1,2.25-.93A3.18,3.18,0,0,1,12.43,14.69Zm0-8.11A5.09,5.09,0,0,0,10.54,7,5,5,0,0,0,7.88,9.62a5,5,0,0,0,0,3.76,5,5,0,0,0,2.66,2.67,5.09,5.09,0,0,0,1.89.37,4.92,4.92,0,1,0,0-9.84Zm6.26-.2a1.08,1.08,0,0,1-.09.44,1,1,0,0,1-.25.38,1.21,1.21,0,0,1-.37.25,1.25,1.25,0,0,1-.88,0,1.34,1.34,0,0,1-.37-.25,1.19,1.19,0,0,1-.25-.38,1.08,1.08,0,0,1-.09-.44,1.14,1.14,0,0,1,.34-.81,1.17,1.17,0,0,1,.81-.34,1.16,1.16,0,0,1,1.15,1.15Z"/></svg>