<svg id="Layer_1" data-name="Layer 1" xmlns="http://www.w3.org/2000/svg" viewBox="0 0 26 26"><defs><style>.cls-1{fill-rule:evenodd;}</style></defs><path class="cls-1" d="M19.5,13a.8.8,0,0,0-.24-.57.78.78,0,0,0-.57-.24H9.27L12.76,8.7a.76.76,0,0,0,.18-.26A.85.85,0,0,0,13,8.13a.77.77,0,0,0-.24-.58.68.68,0,0,0-.26-.18.85.85,0,0,0-.31-.06.78.78,0,0,0-.31.06.8.8,0,0,0-.27.18L6.74,12.42a.8.8,0,0,0-.18.27.83.83,0,0,0,0,.62.8.8,0,0,0,.18.27l4.87,4.87a.8.8,0,0,0,.27.18.78.78,0,0,0,.31.06.85.85,0,0,0,.31-.06.68.68,0,0,0,.26-.18.78.78,0,0,0,.24-.57.77.77,0,0,0-.24-.58L9.27,13.81h9.42a.78.78,0,0,0,.57-.24A.8.8,0,0,0,19.5,13Z"/></svg>