<svg id="Layer_1" data-name="Layer 1" xmlns="http://www.w3.org/2000/svg" viewBox="0 0 22 23"><defs><style>.cls-1{fill-rule:evenodd;}</style></defs><path class="cls-1" d="M5.5,11.5A.7.7,0,0,1,5.7,11a.74.74,0,0,1,.49-.2h8l-3-2.95a.86.86,0,0,1-.15-.22A.75.75,0,0,1,11,7.38a.81.81,0,0,1,.05-.27.86.86,0,0,1,.15-.22.54.54,0,0,1,.22-.15.65.65,0,0,1,.27,0,.58.58,0,0,1,.26,0,.54.54,0,0,1,.22.15L16.3,11a.91.91,0,0,1,.15.23.7.7,0,0,1,0,.52.91.91,0,0,1-.15.23l-4.13,4.12a.54.54,0,0,1-.22.15.58.58,0,0,1-.26,0,.65.65,0,0,1-.27,0,.54.54,0,0,1-.22-.15.67.67,0,0,1-.2-.48.81.81,0,0,1,.05-.27.86.86,0,0,1,.15-.22l3-3h-8a.68.68,0,0,1-.69-.69Z"/></svg>