<svg id="Layer_1" data-name="Layer 1" xmlns="http://www.w3.org/2000/svg" viewBox="0 0 13 11.38"><defs><style>.cls-1{fill-rule:evenodd;}</style></defs><path class="cls-1" d="M13,5.69a.82.82,0,0,1-.81.81H2.78L6.26,10a.68.68,0,0,1,.18.26.85.85,0,0,1,.06.31.78.78,0,0,1-.06.31.8.8,0,0,1-.18.27,1,1,0,0,1-.26.18.83.83,0,0,1-.62,0,1.27,1.27,0,0,1-.27-.18L.24,6.26A.68.68,0,0,1,.06,6a.83.83,0,0,1,0-.62.8.8,0,0,1,.18-.27L5.11.24A.8.8,0,0,1,5.38.06.83.83,0,0,1,6,.06a.68.68,0,0,1,.26.18A.78.78,0,0,1,6.5.81a.78.78,0,0,1-.06.31.8.8,0,0,1-.18.27L2.78,4.88h9.41a.81.81,0,0,1,.57.23A.8.8,0,0,1,13,5.69Z"/></svg>