<svg id="Layer_1" data-name="Layer 1" xmlns="http://www.w3.org/2000/svg" viewBox="0 0 13 11.38"><defs><style>.cls-1{fill-rule:evenodd;}</style></defs><path class="cls-1" d="M0,5.69a.84.84,0,0,1,.24-.58.81.81,0,0,1,.57-.23h9.42L6.74,1.39a.8.8,0,0,1-.18-.27A.78.78,0,0,1,6.5.81.85.85,0,0,1,6.56.5.68.68,0,0,1,6.74.24.68.68,0,0,1,7,.06.85.85,0,0,1,7.31,0a.78.78,0,0,1,.31.06.8.8,0,0,1,.27.18l4.87,4.87a.8.8,0,0,1,.18.27.83.83,0,0,1,0,.62.68.68,0,0,1-.18.26L7.89,11.14a1.27,1.27,0,0,1-.27.18.78.78,0,0,1-.31.06A.85.85,0,0,1,7,11.32a1,1,0,0,1-.26-.18.78.78,0,0,1-.24-.58.85.85,0,0,1,.06-.31A.68.68,0,0,1,6.74,10L10.23,6.5H.81a.78.78,0,0,1-.57-.24A.82.82,0,0,1,0,5.69Z"/></svg>