<svg id="Layer_1" data-name="Layer 1" xmlns="http://www.w3.org/2000/svg" viewBox="0 0 9.71 19.29"><path d="M1.38,19.29A1.34,1.34,0,0,1,.5,19a1.23,1.23,0,0,1-.34-.41A1.2,1.2,0,0,1,0,18a1.35,1.35,0,0,1,0-.53A1.27,1.27,0,0,1,.32,17L6.48,9.67.54,2.28a1.26,1.26,0,0,1-.25-.47,1.42,1.42,0,0,1,0-.54A1.27,1.27,0,0,1,.4.76,1.53,1.53,0,0,1,.74.34,1.39,1.39,0,0,1,1.23.07,1.34,1.34,0,0,1,1.79,0a1.31,1.31,0,0,1,.54.17,1.35,1.35,0,0,1,.42.37L9.39,8.8a1.32,1.32,0,0,1,.32.87,1.36,1.36,0,0,1-.32.88L2.52,18.8a1.48,1.48,0,0,1-.51.38A1.38,1.38,0,0,1,1.38,19.29Z"/></svg>