<svg width="138" height="12" viewBox="0 0 138 12" fill="none" xmlns="http://www.w3.org/2000/svg">
<g opacity="0.6">
<path d="M0 10.9688L4.58008 0.550781H6.27272L10.8528 10.9688H8.92784L7.8658 8.47575H2.95382L1.89178 10.9688H0ZM3.60101 6.85773H7.18542L5.39321 2.71364L3.60101 6.85773Z" fill="white"/>
<path d="M23.697 11.282L22.4524 10.1758C21.5397 10.8197 20.4777 11.1499 19.2829 11.1499C17.7064 11.1499 16.412 10.638 15.3997 9.5979C14.3875 8.55775 13.873 7.30296 13.873 5.80052C13.873 4.3311 14.3875 3.0598 15.4163 2.01965C16.4452 0.979503 17.7396 0.451172 19.316 0.451172C20.8925 0.451172 22.1869 0.962992 23.1992 2.00314C24.2114 3.04329 24.7258 4.29808 24.7258 5.80052C24.7258 6.98926 24.3774 8.04593 23.6638 8.9705L24.8586 9.97763L23.697 11.282ZM19.316 9.48232C19.9798 9.48232 20.5772 9.31722 21.0917 8.98701L19.316 7.48457L20.4943 6.14724L22.2865 7.76525C22.6349 7.22041 22.8175 6.57651 22.8175 5.80052C22.8175 4.77688 22.4856 3.90183 21.8218 3.19189C21.158 2.48194 20.3117 2.11872 19.2829 2.11872C18.2706 2.11872 17.4243 2.46543 16.7605 3.17538C16.0967 3.88532 15.7648 4.76037 15.7648 5.78401C15.7648 6.80765 16.0967 7.6827 16.7605 8.39264C17.4409 9.1191 18.2872 9.48232 19.316 9.48232Z" fill="white"/>
<path d="M34.0186 11.1334C32.6413 11.1334 31.5626 10.7371 30.7827 9.96115C30.0028 9.18517 29.6045 8.06246 29.6045 6.57653V0.632812H31.4299V6.51049C31.4299 7.45158 31.6622 8.17804 32.1269 8.68986C32.5915 9.20168 33.2387 9.46584 34.0518 9.46584C34.8815 9.46584 35.5121 9.21819 35.9768 8.72288C36.4414 8.22757 36.6738 7.51762 36.6738 6.57653V0.632812H38.4991V6.49398C38.4991 7.99642 38.1009 9.15215 37.3043 9.94464C36.5078 10.7371 35.4126 11.1334 34.0186 11.1334Z" fill="white"/>
<path d="M44.5229 10.9683V0.632812H46.3483V10.9683H44.5229Z" fill="white"/>
<path d="M52.5049 10.9683V0.632812H54.3303V9.31725H59.7899V10.9683H52.5049Z" fill="white"/>
<path d="M62.9595 10.9688L67.5396 0.550781H69.2322L73.8123 10.9688H71.8873L70.8253 8.47575H65.9133L64.8512 10.9688H62.9595ZM66.5771 6.85773H70.1615L68.3693 2.71364L66.5771 6.85773Z" fill="white"/>
<path d="M78.0107 10.9683V0.632812H79.9523L83.1218 5.51987L86.2748 0.632812H88.2164V10.9683H86.391V3.55514L83.1052 8.42569H83.0389L79.7863 3.58816V10.9683H78.0107Z" fill="white"/>
<path d="M93.7261 10.9683V0.632812H101.426V2.25083H95.5515V4.94201H100.762V6.56003H95.5515V9.33376H101.509V10.9518H93.7261V10.9683Z" fill="white"/>
<path d="M106.487 10.9683V0.632812H110.37C111.996 0.632812 113.324 1.12812 114.353 2.10223C115.381 3.07634 115.896 4.31462 115.896 5.80055C115.896 7.26997 115.381 8.50824 114.353 9.49887C113.324 10.4895 111.996 10.9683 110.387 10.9683H106.487ZM108.312 9.31725H110.353C111.432 9.31725 112.295 8.98704 112.959 8.34314C113.622 7.68273 113.954 6.8407 113.954 5.81706C113.954 4.79342 113.622 3.95139 112.959 3.29098C112.295 2.63056 111.432 2.30036 110.353 2.30036H108.312V9.31725Z" fill="white"/>
<path d="M120.858 10.9683V0.632812H122.683V10.9683H120.858Z" fill="white"/>
<path d="M127.147 10.9688L131.727 0.550781H133.42L138 10.9688H136.075L135.013 8.47575H130.101L129.039 10.9688H127.147ZM130.748 6.85773H134.332L132.54 2.71364L130.748 6.85773Z" fill="white"/>
</g>
</svg>
