<svg width="114" height="114" viewBox="0 0 114 114" fill="none" xmlns="http://www.w3.org/2000/svg">
<path fill-rule="evenodd" clip-rule="evenodd" d="M26.4321 7.125H87.5682C88.7912 7.12638 89.9935 7.4404 91.061 8.03724C92.1278 8.63368 93.0245 9.49277 93.6661 10.533C93.6665 10.5337 93.667 10.5344 93.6674 10.5351L109.355 35.858C110.128 37.1082 110.502 38.564 110.428 40.032C110.354 41.4999 109.834 42.9105 108.939 44.0762L108.935 44.0813L62.6835 104.071C62.6825 104.073 62.6815 104.074 62.6806 104.075C62.0122 104.945 61.1527 105.65 60.1687 106.136C59.1832 106.622 58.099 106.875 57.0001 106.875C55.9012 106.875 54.8171 106.622 53.8316 106.136C52.8475 105.65 51.9881 104.945 51.3197 104.075C51.3187 104.074 51.3178 104.073 51.3168 104.071L5.06529 44.0813L5.06131 44.0762C4.16598 42.9105 3.64661 41.4999 3.57224 40.032C3.49786 38.564 3.872 37.1082 4.64492 35.858L20.3329 10.5351C20.3337 10.5337 20.3346 10.5324 20.3354 10.531C20.9769 9.49166 21.8731 8.63329 22.9392 8.03724C24.0067 7.4404 25.2091 7.12638 26.4321 7.125ZM10.7113 39.7352C10.7115 39.7355 10.7117 39.7358 10.7119 39.7361L56.9648 99.7279L56.9701 99.7348C56.9736 99.7394 56.9782 99.7431 56.9834 99.7457C56.9886 99.7483 56.9943 99.7496 57.0001 99.7496C57.0059 99.7496 57.0117 99.7483 57.0169 99.7457C57.0221 99.7431 57.0266 99.7394 57.0302 99.7348L57.0355 99.7279L103.288 39.7361C103.289 39.7358 103.289 39.7354 103.289 39.7351C103.303 39.7166 103.311 39.6945 103.312 39.6714C103.313 39.648 103.307 39.6247 103.295 39.6047L87.6018 14.2733C87.5974 14.2662 87.5913 14.2603 87.584 14.2562C87.5768 14.2522 87.5688 14.2501 87.5606 14.25H26.4397C26.4315 14.2501 26.4234 14.2522 26.4163 14.2562C26.409 14.2603 26.4029 14.2662 26.3985 14.2733L26.3941 14.2803L10.7053 39.6047C10.7052 39.6048 10.7051 39.605 10.705 39.6051C10.6928 39.625 10.6869 39.6481 10.6881 39.6714C10.6893 39.6945 10.6974 39.7168 10.7113 39.7352Z" fill="#FF772B"/>
<path fill-rule="evenodd" clip-rule="evenodd" d="M7.125 39.1875C7.125 37.22 8.71999 35.625 10.6875 35.625H103.312C105.28 35.625 106.875 37.22 106.875 39.1875C106.875 41.155 105.28 42.75 103.312 42.75H10.6875C8.71999 42.75 7.125 41.155 7.125 39.1875Z" fill="#FF772B"/>
<path fill-rule="evenodd" clip-rule="evenodd" d="M54.8618 7.83771C56.4358 6.6572 58.6688 6.9762 59.8493 8.55021L77.5271 32.1207L85.7873 12.8469C86.5624 11.0384 88.6567 10.2007 90.4651 10.9758C92.2735 11.7508 93.1113 13.8451 92.3362 15.6535L81.6487 40.591C81.1477 41.7602 80.0612 42.5735 78.7983 42.7249C77.5353 42.8763 76.2875 42.3428 75.5243 41.3252L54.1493 12.8252C52.9688 11.2512 53.2878 9.01822 54.8618 7.83771Z" fill="#FF772B"/>
<path fill-rule="evenodd" clip-rule="evenodd" d="M59.1374 7.83771C60.7114 9.01822 61.0304 11.2512 59.8499 12.8252L38.4749 41.3252C37.7117 42.3428 36.4638 42.8763 35.2009 42.7249C33.9379 42.5735 32.8515 41.7602 32.3504 40.591L21.6629 15.6535C20.8879 13.8451 21.7256 11.7508 23.534 10.9758C25.3425 10.2007 27.4368 11.0384 28.2118 12.8469L36.472 32.1207L54.1499 8.55021C55.3304 6.9762 57.5634 6.6572 59.1374 7.83771Z" fill="#FF772B"/>
<path fill-rule="evenodd" clip-rule="evenodd" d="M34.439 35.8281C36.2944 35.1733 38.3293 36.1465 38.9841 38.0018L60.3591 98.5643C61.0139 100.42 60.0407 102.455 58.1854 103.109C56.33 103.764 54.2951 102.791 53.6403 100.936L32.2653 40.3732C31.6105 38.5178 32.5837 36.4829 34.439 35.8281Z" fill="#FF772B"/>
<path fill-rule="evenodd" clip-rule="evenodd" d="M79.5604 35.8281C81.4157 36.4829 82.3889 38.5178 81.7341 40.3732L60.3591 100.936C59.7043 102.791 57.6694 103.764 55.814 103.109C53.9587 102.455 52.9855 100.42 53.6403 98.5643L75.0153 38.0018C75.6701 36.1465 77.705 35.1733 79.5604 35.8281Z" fill="#FF772B"/>
</svg>
