<svg width="18" height="18" viewBox="0 0 18 18" fill="none" xmlns="http://www.w3.org/2000/svg">
<path d="M15.3649 2.63609C13.665 0.936141 11.4049 0 9.0009 0C6.59688 0 4.33686 0.936176 2.63702 2.63609C0.937183 4.33596 0.00100708 6.59605 0.00100708 9.00007C0.00100708 11.4041 0.937148 13.6641 2.63702 15.364C4.33686 17.0639 6.59692 18 9.0009 18C11.4049 18 13.665 17.0639 15.3649 15.364C17.0648 13.6641 18.0009 11.4041 18.0009 9.00004C18.0009 6.59602 17.0648 4.33596 15.3649 2.63609ZM12.5068 2.59126C12.6356 2.46487 12.7666 2.33634 12.8886 2.20964C13.3964 2.50151 13.8683 2.84896 14.2965 3.2432C14.2944 3.24608 14.2922 3.24935 14.2903 3.25171C14.2127 3.24418 14.1079 3.20984 13.9975 3.17359C13.7838 3.10352 13.5177 3.01641 13.2093 3.04109C12.9087 3.06524 12.6565 3.18945 12.4538 3.28922C12.36 3.33541 12.204 3.41223 12.1504 3.41251C12.0956 3.38621 11.9819 3.2407 11.9367 3.18255C12.077 3.01279 12.2952 2.79879 12.5068 2.59126ZM6.53142 1.57345C6.67106 1.99979 6.83056 2.40212 6.98673 2.78497C7.11505 3.09952 7.26049 3.45596 7.23075 3.74818C7.21866 3.8667 7.19798 3.92442 7.18775 3.94692C7.13548 3.96369 7.0106 3.97417 6.92531 3.98127C6.65732 4.00363 6.29028 4.03425 5.95064 4.27275C5.88395 4.31954 5.82415 4.3663 5.76625 4.41151C5.66869 4.4877 5.56782 4.56652 5.5044 4.58427C5.44175 4.60181 5.31625 4.5875 5.19496 4.57369C5.10559 4.56353 5.0043 4.55196 4.89757 4.54845C4.5703 4.53741 3.77011 4.67666 3.38838 5.17521C3.19147 5.43231 3.13487 5.74341 3.22898 6.05134C3.2988 6.27968 3.44569 6.43539 3.56585 6.5456C4.09119 7.02724 4.81116 7.36822 5.54121 7.48118C5.64309 7.49696 5.74012 7.50881 5.83396 7.52031C6.34049 7.58229 6.48326 7.6236 6.61365 7.85858C6.65334 7.93013 6.68882 8.02413 6.72643 8.12373C6.77344 8.24829 6.82673 8.38941 6.90429 8.53168C7.15428 8.99016 7.58548 9.25931 8.02873 9.23358C8.35863 9.21459 8.59376 9.04841 8.7655 8.92709C8.82544 8.88472 8.88745 8.84088 8.92391 8.8257C8.99338 8.79676 9.16044 8.82731 9.36343 8.96256C9.56157 9.09468 9.69742 9.24838 9.74593 9.39537C9.78098 9.50171 9.75799 9.62283 9.71169 9.66196L8.63665 10.5802C8.36035 10.8162 7.84605 11.2554 7.83013 11.9185C7.82556 12.1093 7.86244 12.281 7.89496 12.4326C7.90128 12.462 7.90891 12.4976 7.91563 12.5319C7.81487 12.5566 7.69175 12.5882 7.56315 12.6531C6.91041 12.9827 6.85173 13.7344 6.81668 14.1834C6.80641 14.3147 6.78022 14.4166 6.75392 14.486C6.73934 14.4586 6.7258 14.4261 6.71652 14.3899C6.69131 14.2915 6.67848 14.1724 6.66487 14.0462C6.64269 13.8405 6.61752 13.6072 6.53086 13.367C6.41927 13.0577 6.23414 12.8147 6.07077 12.6003C5.92853 12.4136 5.80569 12.2523 5.77043 12.1034C5.74396 11.9913 5.75654 11.8329 5.76983 11.6652C5.79005 11.4107 5.813 11.1223 5.72775 10.8122C5.6065 10.3711 5.32212 10.0727 5.07124 9.80951C4.92932 9.66062 4.79526 9.51996 4.7239 9.3837C4.6526 9.24768 4.65777 9.10202 4.67303 8.85632C4.68762 8.62098 4.70579 8.32813 4.60131 8.02199C4.4881 7.69039 4.23122 7.50649 4.05906 7.3832C3.60702 7.05959 3.18363 6.69108 2.80064 6.28784C2.60974 6.08681 2.42398 5.87018 2.35778 5.64768C2.3376 5.57986 2.3236 5.52867 2.31271 5.48859C2.27294 5.34308 2.23895 5.25217 2.18154 5.16424C3.12875 3.4868 4.67668 2.19185 6.53142 1.57345ZM9.0009 16.8261C4.68561 16.8261 1.17491 13.3153 1.17491 9.00007C1.17491 8.16859 1.30573 7.36717 1.54704 6.61479C1.67234 6.79409 1.8138 6.95348 1.94951 7.09632C2.38358 7.55332 2.86343 7.97101 3.37787 8.33931C3.41601 8.36662 3.47033 8.40551 3.49863 8.43096C3.51797 8.51741 3.5102 8.6419 3.50144 8.78368C3.48281 9.08416 3.45725 9.49567 3.68419 9.92869C3.83202 10.2108 4.03898 10.4279 4.22159 10.6195C4.39941 10.8061 4.55297 10.9672 4.59589 11.1234C4.62648 11.2348 4.61347 11.3987 4.59966 11.5722C4.58067 11.8112 4.55912 12.0821 4.62806 12.3736C4.72073 12.7654 4.9419 13.0557 5.13702 13.3118C5.26003 13.4732 5.37622 13.6258 5.42664 13.7654C5.46548 13.8731 5.4812 14.0184 5.49776 14.1722C5.51439 14.3263 5.53326 14.5011 5.57932 14.681C5.71734 15.2202 6.16485 15.7375 6.76869 15.7375C6.80086 15.7375 6.83359 15.736 6.86664 15.733C7.49192 15.6759 7.92129 15.1172 7.9871 14.2748C7.99775 14.1385 8.02581 13.7791 8.09535 13.6998C8.11686 13.6912 8.16928 13.6784 8.20816 13.6689C8.37357 13.6284 8.6235 13.5671 8.83001 13.3556C9.21036 12.9661 9.10549 12.4778 9.04281 12.186C9.02396 12.0981 9.00255 11.9985 9.00378 11.9466C9.00712 11.8075 9.29192 11.5643 9.39915 11.4727L10.472 10.5563C10.8897 10.2031 11.0459 9.58869 10.8608 9.02749C10.7286 8.62685 10.436 8.26661 10.0146 7.98564C9.49467 7.6391 8.93256 7.55026 8.47261 7.7419C8.3162 7.80704 8.18974 7.89641 8.0881 7.96823C8.05734 7.99 8.01681 8.01865 7.98383 8.03957C7.96868 8.02269 7.95121 7.99935 7.935 7.96961C7.89633 7.89866 7.86159 7.80655 7.82478 7.70903C7.77634 7.58071 7.72142 7.43523 7.64018 7.28881C7.2054 6.50535 6.49517 6.41844 5.97662 6.35502C5.88799 6.34419 5.80425 6.33393 5.72075 6.32102C5.28422 6.25349 4.84012 6.06182 4.49921 5.79807C4.62416 5.75314 4.77688 5.71852 4.85907 5.72171C4.91856 5.72368 4.98827 5.73163 5.06217 5.74003C5.27392 5.76418 5.53734 5.79417 5.82126 5.71458C6.10789 5.63425 6.31922 5.46919 6.48899 5.33658C6.53743 5.29875 6.58317 5.263 6.62536 5.23339C6.70481 5.17764 6.85939 5.16473 7.02305 5.15106C7.43061 5.11703 8.27869 5.04626 8.39874 3.86701C8.45816 3.28356 8.24504 2.76121 8.0738 2.34148C7.93138 1.9923 7.79318 1.64573 7.67259 1.28711C8.10449 1.21307 8.54819 1.17394 9.00097 1.17394C9.97248 1.17394 10.903 1.35243 11.7621 1.67738C11.7363 1.70269 11.7105 1.72796 11.6848 1.75317C11.4239 2.00904 11.1542 2.27366 10.9685 2.51402C10.89 2.61566 10.7586 2.78571 10.7199 3.03061C10.6543 3.44609 10.9027 3.76527 11.0088 3.90154C11.1665 4.10414 11.4304 4.44326 11.8664 4.552C11.9638 4.57625 12.0578 4.58666 12.148 4.58666C12.4765 4.58666 12.7559 4.44909 12.9725 4.34239C13.0973 4.28098 13.2263 4.21745 13.3034 4.21126C13.3768 4.20525 13.5064 4.24796 13.6319 4.2891C13.8152 4.34922 14.0229 4.41728 14.2677 4.42617C14.2824 4.42673 14.297 4.42698 14.3116 4.42698C14.6155 4.42695 14.8854 4.31125 15.0992 4.10101C15.6189 4.74662 16.0384 5.47597 16.3338 6.26551C16.2919 6.2666 16.2493 6.2672 16.2113 6.26766C16.0962 6.2691 15.9658 6.27075 15.8237 6.28165C15.4959 6.30686 15.2391 6.21169 14.914 6.09117C14.6907 6.00845 14.4377 5.91465 14.141 5.8557C13.3415 5.69682 12.5214 6.13269 12.0517 6.96618C11.9149 7.20889 11.2607 8.45859 11.8173 9.22532C12.026 9.51275 12.3052 9.68013 12.5296 9.81457C12.8307 9.99503 13.142 10.1816 13.4947 10.3239C13.5698 10.3542 13.6441 10.3817 13.716 10.4082C13.9299 10.4871 14.1511 10.5688 14.2302 10.6771C14.2745 10.7378 14.3208 10.8745 14.2892 11.1807C14.2681 11.3856 14.1861 11.6092 14.0993 11.8458C13.8855 12.4289 13.5926 13.2276 14.2789 14.0117C14.4017 14.152 14.5404 14.2709 14.6908 14.3676C13.2629 15.8804 11.2404 16.8261 9.0009 16.8261ZM15.1622 13.2386C14.9612 13.0089 14.9881 12.8319 15.2014 12.25C15.3042 11.9696 15.4207 11.652 15.4569 11.3011C15.5137 10.7498 15.4224 10.3192 15.1779 9.98459C14.8899 9.59027 14.4644 9.43316 14.1224 9.30698C14.0557 9.28234 13.9926 9.25903 13.9337 9.2353C13.6664 9.12744 13.4073 8.97216 13.133 8.80773C12.9923 8.72343 12.8471 8.63638 12.7757 8.54684C12.7341 8.40263 12.8549 7.93174 13.0742 7.54249C13.2513 7.2283 13.5788 6.94072 13.912 7.00706C14.1172 7.04784 14.306 7.11781 14.5059 7.19191C14.8918 7.33493 15.3292 7.49689 15.9137 7.45211C16.0182 7.44405 16.1238 7.44272 16.226 7.44145C16.3711 7.43966 16.519 7.43773 16.6659 7.41639C16.7715 7.92802 16.827 8.45765 16.827 9.00007C16.827 10.6474 16.315 12.1771 15.4424 13.4394C15.3375 13.3973 15.2426 13.3305 15.1622 13.2386Z" fill="#FF772B"/>
</svg>
