<svg width="21" height="24" viewBox="0 0 21 24" fill="none" xmlns="http://www.w3.org/2000/svg">
<path d="M18.8835 21.8131L11.9009 6.99176C11.7825 6.75486 11.6001 6.55585 11.3743 6.41727C11.1486 6.27869 10.8886 6.20606 10.6238 6.20761C10.3589 6.20916 10.0998 6.28482 9.87569 6.42604C9.65162 6.56726 9.47155 6.76838 9.35587 7.00665L2.37895 21.8131H0.700684V23.2318H20.5618V21.8131H18.8835ZM10.6241 7.61171L14.1403 15.0745L12.7592 15.9952L10.6312 14.5766L8.50326 15.9952L7.11653 15.071L10.6241 7.61171ZM6.50651 16.369L8.50326 17.7004L10.6312 16.2818L12.7592 17.7004L14.7524 16.3719L17.3145 21.8131H3.94585L6.50651 16.369Z" fill="white"/>
<path fill-rule="evenodd" clip-rule="evenodd" d="M10.1154 0.791264C10.1154 0.506355 10.3463 0.275391 10.6312 0.275391H15.0023C15.1602 0.27545 15.315 0.320502 15.4483 0.405273C15.5815 0.490043 15.6878 0.611022 15.7548 0.754042C15.8218 0.897061 15.8466 1.0562 15.8264 1.21283C15.8062 1.36947 15.7418 1.5171 15.6408 1.63844L14.7705 2.6828L15.6407 3.72708C15.7418 3.84842 15.8062 3.99613 15.8264 4.15276C15.8466 4.30939 15.8218 4.46854 15.7548 4.61155C15.6878 4.75457 15.5815 4.87555 15.4483 4.96032C15.315 5.04509 15.1604 5.09015 15.0024 5.09021H11.1471V6.46587C11.1471 6.75078 10.9161 6.98174 10.6312 6.98174C10.3463 6.98174 10.1154 6.75078 10.1154 6.46587V0.791264ZM11.1471 4.05846H14.5738L13.7027 3.01303C13.5433 2.82173 13.5433 2.54387 13.7027 2.35256L14.5738 1.30714H11.1471V4.05846Z" fill="white"/>
</svg>
