<svg width="325" height="189" viewBox="0 0 325 189" fill="none" xmlns="http://www.w3.org/2000/svg">
<g clip-path="url(#clip0_1101_6461)">
<path d="M157.683 167.05L161.432 166.966C163.446 166.902 166.254 166.966 169.539 166.645L174.961 166.261L181.227 165.492L182.919 165.287C183.489 165.214 184.059 165.098 184.636 165.003L188.205 164.377L190.065 164.056C190.684 163.951 191.304 163.84 191.924 163.683L195.766 162.804L197.743 162.352L198.747 162.146C199.082 162.068 199.41 161.962 199.745 161.873L203.798 160.715L205.875 160.121C206.581 159.937 207.25 159.663 207.951 159.437L212.153 157.99C213.59 157.538 214.972 156.938 216.392 156.365L220.687 154.623L224.938 152.635L227.089 151.624C227.807 151.277 228.489 150.883 229.196 150.514L233.441 148.242C234.842 147.452 236.199 146.584 237.593 145.753L239.676 144.491C240.376 144.075 241.027 143.591 241.702 143.144L245.749 140.387C247.063 139.429 248.34 138.425 249.648 137.441L251.6 135.957C252.219 135.431 252.839 134.905 253.459 134.379L257.177 131.222L260.716 127.903C261.299 127.376 261.9 126.803 262.476 126.24L264.137 124.509C265.24 123.352 266.368 122.21 267.453 121.047L270.552 117.47C271.066 116.875 271.599 116.297 272.089 115.687L273.526 113.856C274.481 112.635 275.454 111.43 276.377 110.21L279.017 106.501L280.319 104.665C280.722 104.039 281.118 103.413 281.521 102.792L283.889 99.1091C289.353 90.0835 293.842 80.6557 297.3 70.9417C299.768 64.0967 301.732 57.1282 303.182 50.0765C303.45 48.7999 303.686 47.6652 303.888 46.6727C304.08 45.6836 304.192 44.8313 304.309 44.1474L304.65 42.043L306.361 42.2271L306.039 44.3315C305.927 45.026 305.822 45.9098 305.636 46.8936C305.45 47.8774 305.214 49.0506 304.96 50.3396C304.836 50.9867 304.7 51.6653 304.557 52.3808C304.489 52.7386 304.421 53.1016 304.347 53.4751C304.272 53.8487 304.161 54.2275 304.068 54.6115C303.696 56.1898 303.287 57.8365 302.828 59.6252C302.63 60.5249 302.332 61.435 302.066 62.3768C301.8 63.3185 301.508 64.2918 301.223 65.2861C300.684 67.2853 299.928 69.3476 299.203 71.5151C295.794 81.3946 291.332 90.99 285.872 100.182C285.085 101.429 284.298 102.692 283.498 103.96C283.102 104.596 282.711 105.238 282.296 105.869L280.988 107.748L278.348 111.541L275.473 115.266L274.028 117.139L272.473 118.964C271.438 120.185 270.391 121.405 269.374 122.647L266.021 126.198L264.373 127.95L262.582 129.649C261.386 130.78 260.208 131.932 258.993 133.053L255.219 136.304C254.599 136.83 253.98 137.404 253.316 137.909L251.339 139.44L249.369 140.971C248.699 141.471 248.073 142.023 247.373 142.465C244.609 144.359 241.944 146.327 239.075 148.01L236.961 149.31C236.261 149.741 235.573 150.193 234.835 150.572L230.497 152.934C229.09 153.745 227.603 154.418 226.159 155.118C224.715 155.817 223.265 156.522 221.821 157.18L217.451 158.99L215.295 159.884C214.576 160.174 213.832 160.41 213.113 160.673C210.207 161.689 207.405 162.746 204.567 163.509L200.421 164.724C199.057 165.108 197.681 165.392 196.355 165.719L192.426 166.65C191.137 166.934 189.854 167.134 188.608 167.371C186.129 167.813 183.762 168.307 181.481 168.549C179.2 168.791 177.087 169.128 175.091 169.359L169.514 169.796L167.078 169.985C166.303 170.048 165.597 170.038 164.915 170.064L161.401 170.164L157.8 170.264C134.039 170.264 120.318 181.16 118.285 188.067C116.054 189.488 110.476 189.12 109.497 188.067C109.503 180.497 124.551 167.05 157.683 167.05Z" fill="#FF772B"/>
<path d="M308.306 17.7344C307.109 19.872 306.074 22.0738 305.207 24.3261C304.252 26.6079 303.593 28.9735 303.242 31.3798C303.03 32.6423 302.905 33.9146 302.87 35.19C302.853 36.5621 302.924 37.934 303.084 39.2993C303.23 40.7936 303.487 42.2783 303.852 43.7446C304.041 44.5265 304.279 45.319 304.517 46.1482C304.755 46.9775 305.005 47.8119 305.304 48.6726C305.914 47.9379 306.488 47.2066 307.025 46.4789C307.55 45.7494 307.995 45.0199 308.422 44.3009C309.24 42.9173 309.956 41.4904 310.564 40.0288C311.082 38.6794 311.473 37.2964 311.735 35.8932C311.997 34.5818 312.147 33.2558 312.186 31.9256C312.177 29.4247 311.823 26.9336 311.131 24.5046C310.384 22.1911 309.44 19.9282 308.306 17.7344V17.7344Z" fill="#FF772B"/>
<path d="M287.723 38.728C287.776 39.7771 287.87 40.8366 288.005 41.9067C288.139 42.9558 288.329 44.0363 288.5 45.0854C288.896 47.2525 289.569 49.3758 290.507 51.4165C291.505 53.6762 292.859 55.8082 294.532 57.7528C296.524 60.1026 298.828 62.2465 301.396 64.1416C301.629 62.4973 301.729 60.841 301.695 59.1848C301.632 57.7282 301.452 56.2771 301.157 54.8416C300.659 52.379 299.67 50.0084 298.233 47.8339C297.602 46.8609 296.885 45.9314 296.086 45.0539C295.296 44.2025 294.44 43.3982 293.523 42.6463C291.728 41.1958 289.788 39.8845 287.723 38.728Z" fill="#FF772B"/>
<path d="M325.001 43.1479C324.583 44.3317 324.134 45.5052 323.647 46.6581C323.174 47.8122 322.612 48.94 321.963 50.0344C320.725 52.2325 319.157 54.2937 317.296 56.1694C315.308 58.089 312.964 59.7375 310.352 61.0537C307.302 62.5085 303.989 63.551 300.539 64.1418C301.312 62.5308 302.186 61.0537 303.034 59.7001C303.806 58.4029 304.675 57.1463 305.636 55.9378C307.307 53.84 309.259 51.9046 311.456 50.1682C312.476 49.3806 313.551 48.6433 314.676 47.9602C315.767 47.2911 316.853 46.6735 317.989 46.1074C320.243 44.9927 322.586 44.0041 325.001 43.1479Z" fill="#FF772B"/>
<path d="M283.208 59.7217C283.135 60.7641 283.091 61.8186 283.076 62.8853C283.06 63.9521 283.06 65.0066 283.076 66.049C283.123 67.1219 283.232 68.1918 283.403 69.2544C283.551 70.3384 283.768 71.4139 284.052 72.4754C285.292 76.843 287.634 81.3357 292.411 86.2402C292.831 84.6374 293.148 83.0137 293.359 81.3774C293.463 80.6407 293.526 79.8996 293.548 79.1571C293.548 78.4274 293.531 77.7238 293.496 77.0463C293.388 74.5693 292.805 72.1285 291.774 69.8329C290.856 67.8169 289.629 65.9288 288.128 64.2248C286.64 62.5926 284.994 61.0855 283.208 59.7217Z" fill="#FF772B"/>
<path d="M319.175 67.457C318.61 68.6251 318.021 69.7773 317.383 70.9083C316.745 72.0394 315.985 73.1176 315.213 74.1746C314.449 75.2235 313.623 76.2379 312.74 77.2137C311.82 78.1806 310.823 79.0901 309.757 79.9356C305.564 83.3446 299.852 85.6755 292.383 86.241C293.304 84.7728 294.318 83.3506 295.422 81.981C295.932 81.3362 296.491 80.7337 296.989 80.1365C297.488 79.5392 298.01 78.979 298.533 78.4452C300.47 76.4765 302.655 74.7036 305.047 73.1599C307.208 71.7928 309.537 70.6404 311.993 69.7244C314.327 68.8329 316.727 68.0755 319.175 67.457Z" fill="#FF772B"/>
<path d="M275.064 79.6113L274.903 80.397L274.723 81.1668C274.603 81.694 274.496 82.2213 274.394 82.7222C274.194 83.7767 274.045 84.8313 273.945 85.8858C273.873 86.9403 273.748 87.9949 273.748 89.0968C273.734 90.2031 273.8 91.3091 273.945 92.4081C274.017 92.9722 274.125 93.547 274.232 94.1164C274.34 94.6859 274.448 95.2553 274.597 95.8406C274.906 97.0578 275.306 98.2555 275.794 99.426C276.344 100.725 276.98 101.994 277.697 103.228C278.474 104.603 279.335 105.941 280.277 107.235C280.678 106.418 281.031 105.616 281.354 104.841C281.677 104.066 281.881 103.259 282.096 102.51C282.498 101.095 282.792 99.6578 282.976 98.208C283.206 95.7191 282.99 93.2138 282.336 90.7841C281.69 88.6429 280.696 86.5952 279.385 84.7047C278.132 82.8894 276.686 81.1839 275.064 79.6113Z" fill="#FF772B"/>
<path d="M309.858 91.7656L309.299 92.5906L308.677 93.3998C308.267 93.9286 307.845 94.4575 307.435 94.9863C306.584 96.044 305.696 97.0436 304.758 98.0114C303.819 98.9814 302.797 99.8917 301.702 100.735C300.621 101.588 299.473 102.378 298.267 103.099C297.646 103.459 297.056 103.808 296.404 104.125C295.751 104.442 295.068 104.738 294.373 105.008C291.443 106.157 288.305 106.872 285.093 107.124C283.256 107.258 281.41 107.271 279.571 107.161C280.221 106.455 280.875 105.794 281.534 105.177C282.155 104.532 282.776 103.924 283.397 103.342C284.582 102.244 285.843 101.207 287.174 100.238C289.426 98.4888 291.931 96.9908 294.627 95.7796C297.023 94.6711 299.551 93.7847 302.168 93.1354C304.698 92.5516 307.265 92.0943 309.858 91.7656Z" fill="#FF772B"/>
<path d="M264.403 98.3945C263.969 99.3663 263.56 100.343 263.19 101.341L262.66 102.846C262.475 103.337 262.302 103.834 262.142 104.34C261.822 105.361 261.568 106.396 261.382 107.439C261.287 107.961 261.216 108.515 261.153 109.053C261.089 109.591 261.018 110.129 260.98 110.678C260.902 111.818 260.919 112.962 261.031 114.1C261.133 115.281 261.382 116.535 261.67 117.758C262.352 120.6 263.423 123.371 264.863 126.018C265.913 124.61 266.862 123.153 267.705 121.655C268.088 120.977 268.417 120.279 268.689 119.565C268.964 118.876 269.206 118.202 269.404 117.543C269.799 116.298 270.066 115.027 270.203 113.745C270.288 112.561 270.26 111.373 270.12 110.192C269.589 105.714 267.188 101.859 264.403 98.3945Z" fill="#FF772B"/>
<path d="M297.042 114.969C296.085 115.972 295.109 116.954 294.102 117.898C293.589 118.37 293.101 118.843 292.551 119.283C292.002 119.724 291.452 120.154 290.89 120.573C289.774 121.404 288.609 122.185 287.399 122.913C286.782 123.274 286.164 123.624 285.546 123.943C284.928 124.261 284.237 124.553 283.563 124.824C282.208 125.378 280.806 125.843 279.369 126.214C277.883 126.605 276.356 126.87 274.81 127.005C271.331 127.284 267.823 127.069 264.426 126.368C265.848 125.214 267.346 124.129 268.911 123.12L271.054 121.74C271.752 121.305 272.456 120.902 273.148 120.52C274.491 119.798 275.879 119.141 277.306 118.551C278.601 117.988 279.936 117.495 281.302 117.076C286.695 115.473 291.81 115.032 297.042 114.969Z" fill="#FF772B"/>
<path d="M250.464 116.074L249.545 117.403C249.229 117.837 248.914 118.271 248.612 118.711C248.001 119.595 247.438 120.499 246.928 121.439C246.666 121.904 246.438 122.395 246.189 122.86C245.941 123.325 245.699 123.8 245.478 124.285C245.027 125.28 244.66 126.295 244.377 127.325C244.23 127.836 244.102 128.398 243.995 128.955C243.888 129.512 243.767 130.044 243.68 130.616C243.507 131.803 243.436 132.998 243.465 134.193C243.501 135.532 243.631 136.87 243.854 138.199C244.079 139.675 244.404 141.142 244.827 142.593C245.606 141.964 246.33 141.346 247.008 140.728C247.686 140.11 248.243 139.445 248.793 138.817C249.818 137.643 250.737 136.417 251.545 135.148C252.812 132.937 253.608 130.586 253.9 128.184C254.051 126.052 253.798 123.915 253.148 121.838C252.841 120.849 252.462 119.873 252.014 118.915C251.551 117.96 251.021 117.004 250.464 116.074Z" fill="#FF772B"/>
<path d="M279.57 136.567C279.002 136.982 278.44 137.396 277.847 137.79C277.254 138.185 276.667 138.549 276.043 138.918C274.794 139.657 273.546 140.356 272.297 141C271.673 141.32 271.049 141.639 270.349 141.919C269.65 142.198 268.995 142.463 268.302 142.707C266.929 143.199 265.517 143.62 264.076 143.965C263.351 144.135 262.627 144.285 261.891 144.415C261.154 144.544 260.367 144.609 259.593 144.674C258.007 144.809 256.41 144.838 254.818 144.759C253.147 144.669 251.491 144.458 249.867 144.13C248.073 143.742 246.319 143.241 244.624 142.632C245.529 142.198 246.409 141.794 247.289 141.419C248.169 141.045 248.956 140.636 249.786 140.291C251.346 139.629 252.956 139.044 254.605 138.539C257.431 137.555 260.401 136.862 263.445 136.477C266.147 136.076 268.895 135.909 271.642 135.978C272.99 136.015 274.328 136.088 275.656 136.198C276.979 136.298 278.271 136.423 279.57 136.567Z" fill="#FF772B"/>
<path d="M234.021 130.438C232.435 131.937 230.99 133.595 229.546 135.197C228.112 136.919 226.863 138.737 225.812 140.632C225.253 141.655 224.777 142.706 224.387 143.778C224.182 144.336 223.99 144.915 223.824 145.514C223.658 146.113 223.473 146.687 223.326 147.312C222.677 150.127 222.405 152.99 222.514 155.852C224.133 154.875 225.68 153.823 227.148 152.701C227.487 152.442 227.788 152.184 228.133 151.92C228.478 151.657 228.727 151.368 229.015 151.094C229.578 150.541 230.102 149.988 230.581 149.441C231.493 148.412 232.303 147.327 233.004 146.196C233.598 145.129 234.084 144.025 234.455 142.895C234.797 141.847 235.039 140.78 235.178 139.702C235.242 139.185 235.286 138.669 235.299 138.152C235.312 137.635 235.299 137.088 235.254 136.566C235.087 134.496 234.674 132.444 234.021 130.438Z" fill="#FF772B"/>
<path d="M257.436 154.361C254.881 155.896 252.175 157.19 249.358 158.224C246.602 159.283 243.697 159.945 240.739 160.188C239.251 160.299 237.756 160.299 236.268 160.188C235.52 160.13 234.772 160.048 234.017 159.932C233.244 159.795 232.479 159.62 231.724 159.407C228.412 158.498 225.289 157.049 222.49 155.124C224.281 154.446 226.108 153.863 227.965 153.376L229.273 153.061L230.526 152.741C231.347 152.531 232.162 152.356 232.959 152.205C234.496 151.919 236.05 151.724 237.612 151.622C239.041 151.477 240.477 151.415 241.913 151.436C243.286 151.46 244.657 151.56 246.019 151.733C246.688 151.814 247.357 151.919 248.014 152.024C248.671 152.129 249.298 152.234 249.936 152.362C252.477 152.88 254.982 153.548 257.436 154.361Z" fill="#FF772B"/>
<path d="M214.257 141.487C213.358 142.163 212.37 142.739 211.483 143.394C210.596 144.049 209.671 144.719 208.81 145.452C207.948 146.186 207.073 146.882 206.249 147.668C205.401 148.47 204.611 149.313 203.884 150.193C203.506 150.643 203.148 151.135 202.783 151.607C202.418 152.078 202.059 152.555 201.72 153.063C200.993 154.13 200.352 155.236 199.801 156.373C199.21 157.562 198.681 158.882 198.184 160.26C197.654 161.717 197.213 163.196 196.863 164.691C197.84 164.342 198.771 163.993 199.656 163.643C200.525 163.24 201.342 162.816 202.122 162.392C203.576 161.598 204.964 160.723 206.274 159.773C208.433 158.083 210.244 156.11 211.634 153.932C212.783 151.975 213.568 149.884 213.962 147.731C214.326 145.664 214.425 143.571 214.257 141.487Z" fill="#FF772B"/>
<path d="M231.809 169.169C230.362 169.591 228.881 169.943 227.376 170.224C225.887 170.526 224.393 170.782 222.905 170.99C221.412 171.192 219.9 171.299 218.384 171.311C216.883 171.342 215.382 171.296 213.889 171.174C213.141 171.108 212.407 171.042 211.659 170.919C210.912 170.796 210.171 170.635 209.436 170.446C207.936 170.087 206.477 169.631 205.076 169.084C203.599 168.51 202.197 167.829 200.89 167.05C199.448 166.175 198.101 165.212 196.863 164.17C197.895 164.066 198.901 163.986 199.877 163.924C200.853 163.863 201.779 163.749 202.693 163.692C204.437 163.586 206.187 163.56 207.936 163.612C210.991 163.6 214.037 163.872 217.007 164.421C219.675 164.874 222.277 165.53 224.776 166.379C227.221 167.216 229.568 168.209 231.809 169.169Z" fill="#FF772B"/>
<path d="M167.316 167.042L163.567 166.958C161.559 166.895 158.753 166.958 155.469 166.637L150.041 166.253L143.776 165.485L142.091 165.28C141.521 165.206 140.951 165.091 140.369 164.996L136.8 164.37L134.941 164.049C134.321 163.944 133.701 163.834 133.082 163.676L129.24 162.798L127.258 162.345L126.254 162.114C125.919 162.035 125.597 161.93 125.262 161.84L121.204 160.684L119.128 160.089C118.428 159.905 117.753 159.632 117.059 159.406L112.851 157.959C111.414 157.507 110.032 156.907 108.613 156.334L104.319 154.593L100.075 152.605L97.9126 151.622C97.2 151.275 96.5123 150.88 95.8059 150.512L91.5677 148.24C90.1674 147.452 88.8105 146.584 87.4163 145.753L85.3282 144.491C84.6281 144.075 83.9837 143.591 83.3083 143.144L79.256 140.362C77.9362 139.405 76.6598 138.401 75.3586 137.417L73.4007 135.934C72.781 135.408 72.1614 134.882 71.5418 134.356L67.8241 131.201L64.2861 127.882C63.7037 127.356 63.1027 126.783 62.5264 126.22L60.8597 124.49C59.7568 123.333 58.6291 122.192 57.5509 121.03L54.4529 117.454C53.9448 116.859 53.4057 116.281 52.9224 115.671L51.4849 113.84C50.5307 112.62 49.5579 111.416 48.6285 110.196L45.9951 106.488L44.6939 104.653L43.4919 102.781C42.6926 101.539 41.9057 100.304 41.1188 99.0992C35.6573 90.0767 31.1715 80.6523 27.7165 70.9418C25.2398 64.0969 23.2697 57.1273 21.8178 50.0736C21.5534 48.7974 21.318 47.6632 21.1114 46.671C20.9193 45.6823 20.8016 44.8303 20.6839 44.1466C20.467 42.774 20.3431 42.043 20.3431 42.043L18.6392 42.2323C18.6392 42.2323 18.7507 42.9738 18.9552 44.3359C19.0729 45.0302 19.172 45.9137 19.3579 46.8971L20.0395 50.3419C20.1634 50.9887 20.2997 51.6672 20.436 52.3824C20.5104 52.74 20.5786 53.1029 20.6529 53.4763C20.7273 53.8497 20.8326 54.2284 20.9255 54.6123C21.3014 56.162 21.7145 57.8326 22.1648 59.6242C22.363 60.5235 22.6605 61.4334 22.9207 62.3747C23.1809 63.3161 23.4907 64.3206 23.751 65.3041C24.29 67.3025 25.046 69.3641 25.7709 71.5309C29.1737 81.4084 33.635 91.0008 39.0988 100.188L41.4595 103.964C41.8623 104.6 42.2527 105.242 42.6678 105.873C43.0829 106.504 43.5353 107.125 43.9752 107.75L46.6147 111.542L49.5145 115.266L50.9644 117.138L52.5135 118.963L55.6115 122.644L58.9575 126.194L60.6676 127.956L62.4521 129.665C63.6479 130.796 64.819 131.948 66.0396 133.068L69.8069 136.318C70.4265 136.844 71.0461 137.417 71.7091 137.922L73.6919 139.452L75.6622 140.983C76.3252 141.482 76.9572 142.035 77.6574 142.476C80.4147 144.37 83.079 146.337 85.954 148.02L88.0607 149.319C88.7671 149.75 89.4487 150.202 90.186 150.581L94.5233 152.942C95.936 153.752 97.4231 154.425 98.8606 155.125C100.298 155.824 101.754 156.529 103.198 157.186L107.579 159.001L109.735 159.895C110.454 160.184 111.191 160.421 111.916 160.684C114.822 161.699 117.623 162.756 120.46 163.518L124.599 164.733C125.969 165.117 127.338 165.401 128.67 165.727L132.599 166.658C133.887 166.942 135.17 167.142 136.409 167.378C138.888 167.82 141.261 168.314 143.535 168.556C145.809 168.798 147.934 169.135 149.929 169.366L155.506 169.803L157.941 169.992C158.715 170.055 159.422 170.045 160.097 170.071L163.61 170.171L167.216 170.271C190.966 170.271 204.691 181.163 206.723 188.068C208.954 189.488 214.53 189.12 215.503 188.068C215.497 180.484 200.44 167.042 167.316 167.042Z" fill="#FF772B"/>
<path d="M16.682 17.7344C17.8825 19.8701 18.9211 22.07 19.7915 24.3206C20.7417 26.6019 21.4013 28.9649 21.7587 31.3682C21.9715 32.6296 22.096 33.9009 22.1313 35.1752C22.1489 36.5461 22.0775 37.9169 21.9175 39.281C21.7667 40.7809 21.5076 42.2712 21.1417 43.7435C20.9523 44.5248 20.7079 45.3166 20.4697 46.1451C20.2314 46.9737 20.0054 47.7864 19.6877 48.6726C19.0727 47.9385 18.4985 47.2079 17.9649 46.4807C17.4395 45.7519 16.9936 45.023 16.5659 44.3046C15.7477 42.9239 15.0374 41.4979 14.44 40.0361C13.9257 38.6789 13.5396 37.2883 13.2853 35.8778C13.0161 34.561 12.8589 33.229 12.8149 31.8926C12.8312 29.3998 13.1942 26.9177 13.8963 24.4988C14.6326 22.189 15.5636 19.9283 16.682 17.7344V17.7344Z" fill="#FF772B"/>
<path d="M37.2759 38.728C37.2147 39.7771 37.129 40.8262 36.9945 41.9067C36.8599 42.9872 36.6702 44.0363 36.4928 45.0854C36.1042 47.2464 35.4395 49.3643 34.5108 51.4007C33.5127 53.6605 32.1584 55.7924 30.4855 57.7371C28.4862 60.0933 26.1747 62.2425 23.5973 64.1416C23.3686 62.4969 23.2705 60.8408 23.3036 59.1848C23.3671 57.7282 23.5469 56.2771 23.842 54.8416C24.3379 52.3793 25.325 50.0087 26.76 47.8339C27.3948 46.8619 28.1146 45.9325 28.9133 45.0539C29.6954 44.2032 30.5435 43.3989 31.4521 42.6463C33.2528 41.1935 35.2019 39.8822 37.2759 38.728Z" fill="#FF772B"/>
<path d="M0 43.1479C0.41832 44.3317 0.867858 45.5052 1.35486 46.6581C1.82399 47.812 2.38292 48.9398 3.02814 50.0344C4.26702 52.2325 5.83604 54.2937 7.69834 56.1694C9.68815 58.089 12.0334 59.7375 14.6474 61.0537C17.6987 62.5073 21.0121 63.5498 24.4624 64.1418C23.6882 62.5308 22.8203 61.0537 21.9649 59.7001C21.1891 58.4098 20.3175 57.1602 19.3551 55.9583C17.6941 53.8519 15.7459 51.9092 13.5486 50.1682C12.5317 49.3795 11.458 48.6421 10.3331 47.9602C9.24051 47.2911 8.14788 46.6735 7.01779 46.1074C4.75999 44.9948 2.41564 44.0062 0 43.1479H0Z" fill="#FF772B"/>
<path d="M41.7715 59.7217C41.846 60.7641 41.8861 61.8065 41.9033 62.8853C41.9205 63.9642 41.9663 64.9701 41.9033 66.049C41.854 67.122 41.7431 68.1919 41.571 69.2544C41.4251 70.3383 41.2109 71.4138 40.9294 72.4754C39.6919 76.843 37.3544 81.3357 32.5878 86.2402C32.1671 84.6375 31.8495 83.0138 31.6368 81.3774C31.5508 80.6113 31.4592 79.8816 31.4534 79.1571C31.4477 78.4327 31.4534 77.7238 31.505 77.0463C31.6092 74.5626 32.1889 72.1145 33.218 69.8121C34.1472 67.8029 35.3814 65.9222 36.8846 64.2248C38.3619 62.5935 39.9975 61.0864 41.7715 59.7217Z" fill="#FF772B"/>
<path d="M5.82471 67.457C6.38984 68.6251 6.9732 69.7773 7.61733 70.9083C8.26146 72.0394 9.01497 73.1176 9.78671 74.1746C10.5492 75.2247 11.3747 76.2392 12.2599 77.2137C13.1801 78.1806 14.1771 79.0901 15.2436 79.9356C19.4365 83.3446 25.1486 85.6755 32.6168 86.241C31.6963 84.7728 30.6819 83.3506 29.5785 81.981C29.062 81.3362 28.509 80.7337 28.0046 80.1365C27.5003 79.5392 26.9898 78.979 26.4672 78.4452C24.53 76.4751 22.3427 74.702 19.9469 73.1599C17.7894 71.7918 15.4615 70.6393 13.0074 69.7244C10.6723 68.8337 8.27302 68.0763 5.82471 67.457Z" fill="#FF772B"/>
<path d="M49.9355 79.6113L50.0912 80.397L50.277 81.1668C50.3968 81.694 50.5046 82.2213 50.6005 82.7222C50.7981 83.7767 50.9539 84.8313 51.0498 85.8858C51.1456 86.9403 51.2475 87.9949 51.2534 89.0968C51.264 90.2031 51.198 91.3089 51.0558 92.4081C50.9839 92.9722 50.876 93.547 50.7682 94.1164C50.6604 94.6859 50.5465 95.2553 50.4028 95.8406C50.0914 97.0571 49.6912 98.2547 49.2046 99.426C48.6553 100.723 48.0233 101.993 47.3115 103.228C46.5341 104.605 45.6701 105.942 44.7235 107.235C44.3281 106.418 43.9687 105.616 43.6512 104.841C43.3337 104.066 43.118 103.259 42.9083 102.51C42.503 101.096 42.2088 99.6582 42.0277 98.208C41.7937 95.7196 42.006 93.2144 42.6567 90.7841C43.2917 88.6388 44.2764 86.5857 45.5802 84.6889C46.8428 82.8769 48.3013 81.1765 49.9355 79.6113Z" fill="#FF772B"/>
<path d="M15.1426 91.7656L15.707 92.5906L16.3273 93.3998C16.7366 93.9286 17.1522 94.4575 17.5678 94.9863C18.4237 96.044 19.3106 97.0436 20.241 98.0114C21.1828 98.9802 22.2047 99.8904 23.2989 100.735C24.3763 101.588 25.5202 102.378 26.7226 103.099C27.3429 103.459 27.9631 103.808 28.5834 104.125C29.2036 104.442 29.9231 104.738 30.6116 105.008C33.5492 106.159 36.6956 106.875 39.9153 107.124C41.7494 107.258 43.593 107.271 45.4293 107.161C44.8091 106.462 44.1206 105.801 43.4693 105.177C42.8181 104.553 42.2288 103.924 41.6086 103.342C40.4249 102.243 39.1634 101.206 37.8313 100.238C35.583 98.4877 33.0818 96.9895 30.3883 95.7796C27.9986 94.6712 25.4763 93.7847 22.8647 93.1354C20.3244 92.5498 17.7459 92.0925 15.1426 91.7656Z" fill="#FF772B"/>
<path d="M60.5939 98.3945C61.0347 99.3663 61.4436 100.343 61.8141 101.341L62.3444 102.846C62.5296 103.337 62.7021 103.834 62.8555 104.34C63.1784 105.361 63.4343 106.395 63.6221 107.439C63.7179 107.961 63.7818 108.515 63.8457 109.053C63.9095 109.591 63.9862 110.129 64.0245 110.678C64.0963 111.818 64.0792 112.962 63.9734 114.1C63.8361 115.327 63.6229 116.548 63.3346 117.758C62.6529 120.6 61.5814 123.371 60.1404 126.018C59.0883 124.611 58.139 123.154 57.2975 121.655C56.9143 120.977 56.5856 120.279 56.3137 119.565C56.0326 118.876 55.7962 118.202 55.5918 117.543C55.199 116.297 54.934 115.027 54.7996 113.745C54.711 112.561 54.7388 111.373 54.8827 110.192C55.4065 105.714 57.8086 101.859 60.5939 98.3945Z" fill="#FF772B"/>
<path d="M27.9575 114.969C28.9157 115.972 29.8925 116.954 30.9002 117.898C31.4071 118.371 31.9017 118.843 32.4457 119.283C32.9897 119.724 33.5461 120.143 34.1087 120.573C35.2264 121.405 36.3943 122.186 37.6077 122.913C38.2259 123.274 38.8441 123.624 39.4623 123.943C40.0805 124.261 40.7729 124.553 41.4468 124.824C42.8017 125.38 44.2052 125.845 45.6444 126.214C47.1233 126.604 48.6431 126.869 50.182 127.005C53.6632 127.284 57.1742 127.068 60.574 126.368C59.1492 125.215 57.6508 124.131 56.0858 123.12L53.9592 121.735C53.2545 121.3 52.5559 120.897 51.8573 120.515C50.5176 119.795 49.1328 119.14 47.7092 118.551C46.4126 117.989 45.0768 117.496 43.7094 117.076C38.3125 115.473 33.1875 115.032 27.9575 114.969Z" fill="#FF772B"/>
<path d="M74.5269 116.074L75.4409 117.403C75.7635 117.837 76.113 118.271 76.3818 118.711C76.9867 119.595 77.5579 120.499 78.0687 121.439C78.3308 121.904 78.5593 122.395 78.808 122.86C79.0566 123.325 79.2986 123.8 79.5204 124.285C79.9685 125.281 80.3366 126.296 80.6226 127.325C80.7704 127.836 80.8981 128.398 81.0056 128.955C81.1132 129.512 81.2341 130.044 81.3148 130.616C81.4895 131.803 81.5636 132.998 81.5366 134.193C81.4973 135.532 81.3672 136.869 81.1468 138.199C80.9188 139.675 80.5913 141.142 80.1656 142.593C79.3927 141.964 78.6668 141.346 77.9881 140.728C77.3093 140.11 76.7515 139.445 76.2004 138.817C75.1713 137.644 74.2506 136.418 73.4449 135.148C72.1847 132.939 71.393 130.592 71.0994 128.194C70.9502 126.062 71.206 123.925 71.8588 121.848C72.1671 120.859 72.5463 119.883 72.9946 118.925C73.4314 117.96 73.9624 117.004 74.5269 116.074Z" fill="#FF772B"/>
<path d="M45.4292 136.578C46.0038 136.992 46.566 137.407 47.1531 137.801C47.7402 138.196 48.3648 138.56 48.9832 138.93C50.2324 139.669 51.4816 140.368 52.7307 141.012C53.3553 141.332 53.9799 141.651 54.6732 141.931C55.3665 142.211 56.0349 142.475 56.7282 142.72C58.1017 143.213 59.5143 143.633 60.9567 143.978C61.675 144.148 62.4058 144.298 63.1428 144.428C63.8798 144.558 64.6668 144.623 65.4413 144.688C67.0165 144.814 68.6023 144.836 70.182 144.753C71.8513 144.662 73.507 144.452 75.1288 144.123C76.9249 143.737 78.6794 143.236 80.3754 142.625C79.476 142.189 78.5891 141.785 77.7146 141.412C76.8714 141.007 76.0407 140.628 75.2163 140.283C73.6552 139.621 72.0449 139.035 70.3944 138.53C67.563 137.548 64.5868 136.859 61.5376 136.478C58.8322 136.076 56.0806 135.909 53.3304 135.978C51.9854 136.015 50.6467 136.088 49.3142 136.198C48.0213 136.308 46.7284 136.433 45.4292 136.578Z" fill="#FF772B"/>
<path d="M90.981 130.438C92.5719 131.937 94.0159 133.595 95.4536 135.197C96.8893 136.918 98.1378 138.736 99.185 140.632C99.7458 141.654 100.224 142.705 100.616 143.778C100.821 144.336 101.006 144.915 101.178 145.514C101.351 146.113 101.53 146.687 101.677 147.312C102.319 150.128 102.591 152.99 102.488 155.852C100.868 154.877 99.3207 153.825 97.856 152.701C97.5173 152.442 97.217 152.184 96.872 151.92C96.527 151.657 96.2714 151.368 95.9903 151.094C95.4216 150.541 94.9041 149.988 94.4249 149.441C93.5135 148.412 92.7038 147.327 92.0033 146.196C91.4093 145.129 90.9242 144.025 90.5529 142.895C90.2108 141.847 89.9694 140.78 89.8309 139.702C89.767 139.185 89.7223 138.669 89.7031 138.152C89.6839 137.635 89.7031 137.088 89.7542 136.566C89.9226 134.497 90.3334 132.445 90.981 130.438Z" fill="#FF772B"/>
<path d="M67.5625 154.369C70.1179 155.902 72.8231 157.194 75.6401 158.227C78.3986 159.283 81.3051 159.944 84.2656 160.188C85.7547 160.299 87.2505 160.299 88.7396 160.188C89.4884 160.13 90.2371 160.049 90.9858 159.932C91.7615 159.795 92.5295 159.62 93.2867 159.408C96.5942 158.492 99.7133 157.042 102.509 155.119C100.717 154.443 98.8881 153.86 97.0303 153.373L95.7216 153.059L94.4676 152.739C93.6398 152.53 92.8302 152.355 92.0328 152.204C90.4946 151.918 88.9394 151.724 87.3761 151.622C85.9468 151.477 84.5097 151.415 83.0725 151.435C81.6961 151.46 80.3223 151.559 78.9576 151.732C78.288 151.814 77.6184 151.919 76.9671 152.023C76.3158 152.128 75.6766 152.233 75.0436 152.361C72.5092 152.883 70.0108 153.553 67.5625 154.369Z" fill="#FF772B"/>
<path d="M110.738 141.487C111.638 142.163 112.625 142.739 113.513 143.394C114.4 144.049 115.318 144.719 116.187 145.452C117.055 146.186 117.923 146.882 118.741 147.668C119.593 148.468 120.386 149.311 121.114 150.193C121.491 150.643 121.85 151.135 122.215 151.607C122.58 152.078 122.932 152.555 123.278 153.063C124 154.132 124.641 155.238 125.197 156.373C125.789 157.562 126.317 158.882 126.814 160.26C127.311 161.637 127.752 163.093 128.136 164.691C127.154 164.342 126.223 163.993 125.342 163.643C124.474 163.24 123.649 162.816 122.875 162.392C121.42 161.6 120.032 160.724 118.723 159.773C116.559 158.085 114.747 156.109 113.362 153.927C112.216 151.972 111.439 149.883 111.059 147.731C110.68 145.665 110.572 143.572 110.738 141.487Z" fill="#FF772B"/>
<path d="M93.1904 169.169C94.6383 169.591 96.1191 169.943 97.6243 170.224C99.1188 170.526 100.607 170.782 102.101 170.99C103.594 171.192 105.106 171.3 106.622 171.312C108.123 171.342 109.624 171.296 111.117 171.174C111.865 171.108 112.6 171.042 113.341 170.919C114.082 170.796 114.835 170.635 115.57 170.446C117.069 170.087 118.525 169.632 119.923 169.084C121.404 168.511 122.808 167.83 124.117 167.05C125.556 166.175 126.901 165.212 128.137 164.17C127.105 164.066 126.105 163.986 125.123 163.924C124.141 163.863 123.227 163.749 122.307 163.692C120.565 163.586 118.817 163.56 117.07 163.612C114.015 163.6 110.969 163.872 107.999 164.421C105.331 164.874 102.728 165.53 100.23 166.379C97.7849 167.216 95.4383 168.209 93.1904 169.169Z" fill="#FF772B"/>
<path d="M162.499 178.47C168.289 178.47 172.983 173.756 172.983 167.941C172.983 162.125 168.289 157.411 162.499 157.411C156.709 157.411 152.016 162.125 152.016 167.941C152.016 173.756 156.709 178.47 162.499 178.47Z" fill="white"/>
<path d="M162.5 174.522C166.119 174.522 169.052 171.576 169.052 167.941C169.052 164.307 166.119 161.36 162.5 161.36C158.881 161.36 155.948 164.307 155.948 167.941C155.948 171.576 158.881 174.522 162.5 174.522Z" fill="#FF772B"/>
</g>
<path d="M235 66.3597V0.503318H227.572C224.45 7.67939 220.145 8.49692 211.283 8.76943V16.218H224.956V66.3597H235Z" fill="#FF772B"/>
<path d="M136.806 1.64417H128.354C127.913 1.64417 127.553 2.01411 127.553 2.46626V49.0785H126.792L95.3344 2.00041C95.1876 1.78119 94.9339 1.64417 94.6802 1.64417H85.8011C85.3605 1.64417 85 2.01411 85 2.46626V66.0409C85 66.493 85.3605 66.863 85.8011 66.863H94.1728C94.6134 66.863 94.9739 66.493 94.9739 66.0409V18.7847H95.735L127.539 66.5068C127.686 66.726 127.94 66.863 128.207 66.863H136.806C137.246 66.863 137.607 66.493 137.607 66.0409V2.46626C137.607 2.01411 137.246 1.64417 136.806 1.64417ZM187.276 58.2311H146.686C146.099 58.2311 145.618 58.7243 145.618 59.3272V65.9039C145.618 66.5068 146.099 67 146.686 67H187.276C187.864 67 188.344 66.5068 188.344 65.9039V59.3272C188.344 58.7243 187.864 58.2311 187.276 58.2311ZM166.954 49.5992C174.018 49.5992 179.666 47.2425 183.805 42.5155C187.73 38.0078 189.68 32.1299 189.68 24.8681C189.68 17.5926 187.73 11.6462 183.805 7.15215C179.679 2.38405 174.031 0 166.954 0C159.784 0 154.15 2.39775 150.091 7.23435C146.192 11.7695 144.296 17.6337 144.296 24.8681C144.296 32.0476 146.205 37.9119 150.104 42.447C154.19 47.2014 159.851 49.5992 166.954 49.5992ZM157.408 13.4685C159.664 10.646 162.789 9.23476 166.941 9.23476C171.147 9.23476 174.258 10.5501 176.421 13.2219C178.611 16.0033 179.746 19.8808 179.746 24.8544C179.746 29.828 178.624 33.637 176.434 36.3499C174.231 39.008 171.094 40.3507 166.941 40.3507C162.775 40.3507 159.598 38.9395 157.408 36.1855C155.231 33.4315 154.137 29.7047 154.137 24.8681C154.15 19.963 155.231 16.2362 157.408 13.4685Z" fill="#FF772B"/>
<defs>
<clipPath id="clip0_1101_6461">
<rect width="325" height="179" fill="white" transform="translate(0 10)"/>
</clipPath>
</defs>
</svg>
