<svg width="46" height="46" viewBox="0 0 46 46" fill="none" xmlns="http://www.w3.org/2000/svg">
<path fill-rule="evenodd" clip-rule="evenodd" d="M29.4571 16.5428C29.8476 16.9333 29.8476 17.5665 29.4571 17.957L7.89461 39.5195C7.50408 39.91 6.87092 39.91 6.48039 39.5195C6.08987 39.129 6.08987 38.4958 6.48039 38.1053L28.0429 16.5428C28.4334 16.1523 29.0666 16.1523 29.4571 16.5428Z" fill="#FF772B"/>
<path fill-rule="evenodd" clip-rule="evenodd" d="M12.2304 33.7699C19.0057 37.7369 25.6081 36.9762 30.405 32.5101C35.1983 28.0474 38.3627 19.7193 37.8605 8.13986C26.281 7.63765 17.9529 10.802 13.4902 15.5953C9.02407 20.3923 8.26336 26.9946 12.2304 33.7699ZM12.0264 14.2324C17.1529 8.72625 26.4795 5.46006 38.8717 6.18902C39.3778 6.21879 39.7815 6.62251 39.8113 7.12857C40.5402 19.5208 37.2741 28.8474 31.7679 33.9739C26.1938 39.1635 18.5104 39.8719 10.986 35.3573C10.8453 35.2728 10.7275 35.155 10.643 35.0143C6.12838 27.4899 6.83678 19.8065 12.0264 14.2324Z" fill="#FF772B"/>
</svg>
