<svg width="183" height="61" viewBox="0 0 183 61" fill="none" xmlns="http://www.w3.org/2000/svg">
<path fill-rule="evenodd" clip-rule="evenodd" d="M69.1273 32.064H63.5581V36.3236H69.1273V32.064ZM43.5903 32.1079V40.0059C48.3445 36.6337 54.0948 38.6748 56.721 41.2483C58.849 43.4225 59.9811 46.0847 59.9811 49.2351C59.9811 54.7371 55.5891 60.3278 47.8918 60.3278C41.8697 60.3278 38.0664 57.9761 38.0664 57.9761V32.1079H43.5903ZM43.5903 54.4708C45.8995 55.4914 49.9293 56.1126 52.6006 53.4503C53.6874 52.3411 54.2307 50.9656 54.2307 49.2794C54.2307 47.6377 53.6874 46.2622 52.6006 45.1529C51.514 44.0437 50.1104 43.3781 48.4351 43.3781C46.9862 43.3781 44.8581 44.088 43.5903 45.8185V54.4708ZM89.2756 46.307C88.2794 44.5321 86.3325 43.3341 84.1139 43.3341C80.8085 43.3341 78.1372 45.952 78.1372 49.1911C78.1372 52.4302 80.8085 55.0481 84.1139 55.0481C86.3325 55.0481 88.2342 53.85 89.2756 52.0752L93.8486 55.0481C91.8112 58.2427 88.1889 60.4169 84.0686 60.4169C77.7296 60.4169 72.6132 55.403 72.6132 49.1911C72.6132 42.9791 77.7296 37.9653 84.0686 37.9653C88.2342 37.9653 91.8565 40.0951 93.8486 43.3341L89.2756 46.307ZM107.025 37.9208C100.686 37.9208 95.5691 42.9347 95.5691 49.1466C95.5691 55.3585 100.686 60.3724 107.025 60.3724C113.364 60.3724 118.48 55.3585 118.48 49.1466C118.48 42.9347 113.364 37.9208 107.025 37.9208ZM107.025 55.0035C103.719 55.0035 101.048 52.3856 101.048 49.1466C101.048 45.9075 103.719 43.2896 107.025 43.2896C110.331 43.2896 113.002 45.9075 113.002 49.1466C113.002 52.3856 110.331 55.0035 107.025 55.0035ZM63.5581 38.4972H69.1273V59.7509H63.5581V38.4972ZM127.626 51.0547C127.626 53.9388 128.894 55.3587 131.475 55.3587C132.064 55.3587 132.653 55.27 133.377 55.0481L135.052 59.707C133.74 60.1064 132.472 60.3282 131.204 60.3282C128.261 60.417 125.997 59.6627 124.412 58.0653C122.827 56.468 122.057 54.1607 122.057 51.0547V32.064H127.626V38.4977H132.516V43.7779H127.626V51.0547ZM147.549 37.9208C144.198 37.9208 141.437 38.9856 139.309 41.1154C137.18 43.2452 136.093 45.9075 136.093 49.1022C136.093 52.3413 137.18 55.0035 139.353 57.1333C141.527 59.2632 144.379 60.328 147.957 60.328C151.624 60.328 154.522 59.13 156.605 56.734L152.213 53.8943C151.172 54.826 149.767 55.3585 148.047 55.3585C144.741 55.3585 142.523 53.7611 141.934 51.0989H158.325C158.325 51.0989 159.774 45.5969 155.382 41.1154C153.345 39.03 150.718 37.9208 147.549 37.9208ZM141.889 47.4161C142.116 45.9962 142.84 44.7539 143.836 43.9996C144.832 43.2452 146.055 42.8902 147.549 42.8902C148.817 42.8902 149.948 43.2452 150.945 43.9552C151.941 44.6651 152.711 45.9519 152.937 47.4605H141.889V47.4161ZM180.829 38.4972L173.267 48.88L181.191 59.7509H174.716L170.052 53.3172L165.298 59.7509H158.869L166.792 48.9244L159.185 38.4972H165.66L170.052 44.4873L174.399 38.4972H180.829Z" fill="white"/>
<path fill-rule="evenodd" clip-rule="evenodd" d="M7.26998 32.064H0.164062V39.1522C0.164062 43.0667 3.34547 46.2404 7.26998 46.2404C3.34547 46.2404 0.164062 49.4142 0.164062 53.3287V60.4169H7.26998C11.1945 60.4169 14.3759 57.2431 14.3759 53.3287V60.4169H21.4818C25.4063 60.4169 28.5877 57.2431 28.5877 53.3287C28.5877 49.4142 25.4063 46.2404 21.4818 46.2404C25.4063 46.2404 28.5877 43.0667 28.5877 39.1522C28.5877 35.2377 25.4063 32.064 21.4818 32.064H14.3759V39.1522C14.3759 35.2377 11.1945 32.064 7.26998 32.064ZM14.3759 39.1522C14.3759 43.0667 17.5573 46.2404 21.4818 46.2404C17.5573 46.2404 14.3759 49.4142 14.3759 53.3287C14.3759 49.4142 11.1945 46.2404 7.26998 46.2404C11.1945 46.2404 14.3759 43.0667 14.3759 39.1522Z" fill="#FF772B"/>
<path d="M8.50789 11.5001V12.9291H0.164062V1.43171H8.27794V2.86067H1.80655V6.39201H7.57167V7.78812H1.80655V11.5001H8.50789Z" fill="white"/>
<path d="M14.5063 13.0277C13.6194 13.0277 12.8255 12.836 12.1247 12.4528C11.4348 12.0695 10.8928 11.5439 10.4986 10.876C10.1044 10.1971 9.90734 9.43061 9.90734 8.57652C9.90734 7.72242 10.1044 6.96141 10.4986 6.29346C10.8928 5.61457 11.4348 5.08897 12.1247 4.71668C12.8255 4.33343 13.6194 4.14181 14.5063 4.14181C15.2947 4.14181 15.9955 4.30058 16.6087 4.61813C17.2328 4.93567 17.7146 5.39557 18.0541 5.99781L16.855 6.76978C16.5813 6.35369 16.2419 6.04161 15.8367 5.83357C15.4316 5.62552 14.9826 5.52149 14.4899 5.52149C13.9205 5.52149 13.4058 5.64742 12.9459 5.89926C12.497 6.15111 12.1411 6.51246 11.8783 6.98331C11.6265 7.4432 11.5005 7.97427 11.5005 8.57652C11.5005 9.18971 11.6265 9.73173 11.8783 10.2026C12.1411 10.6625 12.497 11.0183 12.9459 11.2702C13.4058 11.522 13.9205 11.648 14.4899 11.648C14.9826 11.648 15.4316 11.5439 15.8367 11.3359C16.2419 11.1278 16.5813 10.8158 16.855 10.3997L18.0541 11.1552C17.7146 11.7575 17.2328 12.2228 16.6087 12.5513C15.9955 12.8689 15.2947 13.0277 14.5063 13.0277Z" fill="white"/>
<path d="M27.3122 4.22393V12.9291H25.7354V5.60362H21.9905L21.892 7.54175C21.8372 8.71339 21.7332 9.69341 21.5799 10.4818C21.4266 11.2592 21.1747 11.8834 20.8243 12.3542C20.4739 12.8251 19.9867 13.0605 19.3625 13.0605C19.0778 13.0605 18.7548 13.0112 18.3935 12.9127L18.492 11.5823C18.6344 11.6151 18.7658 11.6315 18.8862 11.6315C19.3242 11.6315 19.6527 11.4399 19.8717 11.0567C20.0907 10.6734 20.233 10.219 20.2987 9.69341C20.3644 9.16781 20.4247 8.41774 20.4794 7.4432L20.6272 4.22393H27.3122Z" fill="white"/>
<path d="M30.361 4.22393H31.9378V10.5639L37.2759 4.22393H38.7048V12.9291H37.1281V6.58911L31.8064 12.9291H30.361V4.22393Z" fill="white"/>
<path d="M56.2119 4.22393V12.9291H54.783V6.57268L51.5309 11.9436H50.841L47.6217 6.55626V12.9291H46.1764V4.22393H47.8024L51.2188 10.104L54.7337 4.22393H56.2119Z" fill="white"/>
<path d="M59.2809 4.22393H60.8577V10.5639L66.1958 4.22393H67.6248V12.9291H66.048V6.58911L60.7263 12.9291H59.2809V4.22393Z" fill="white"/>
<path d="M74.0688 9.24994H72.2621V12.9291H70.6853V4.22393H72.2621V7.9031H74.1017L76.9268 4.22393H78.6185L75.3171 8.41227L78.8485 12.9291H76.9925L74.0688 9.24994Z" fill="white"/>
<path d="M85.1171 4.14181C85.9603 4.14181 86.7158 4.32795 87.3837 4.70025C88.0517 5.07255 88.5718 5.59267 88.9441 6.26061C89.3273 6.92856 89.519 7.70052 89.519 8.57652C89.519 9.45251 89.3273 10.23 88.9441 10.9088C88.5718 11.5768 88.0517 12.0969 87.3837 12.4692C86.7158 12.8415 85.9603 13.0277 85.1171 13.0277C84.493 13.0277 83.9181 12.9072 83.3925 12.6663C82.8779 12.4254 82.4399 12.075 82.0785 11.6151V16.1155H80.5017V4.22393H82.0128V5.60362C82.3632 5.12182 82.8067 4.76048 83.3432 4.51958C83.8798 4.26773 84.4711 4.14181 85.1171 4.14181ZM84.9857 11.648C85.5442 11.648 86.0424 11.522 86.4804 11.2702C86.9293 11.0074 87.2797 10.646 87.5316 10.1862C87.7944 9.71531 87.9258 9.17876 87.9258 8.57652C87.9258 7.97427 87.7944 7.4432 87.5316 6.98331C87.2797 6.51246 86.9293 6.15111 86.4804 5.89926C86.0424 5.64742 85.5442 5.52149 84.9857 5.52149C84.4382 5.52149 83.94 5.65289 83.4911 5.91569C83.0531 6.16754 82.7027 6.52341 82.4399 6.98331C82.188 7.4432 82.0621 7.97427 82.0621 8.57652C82.0621 9.17876 82.188 9.71531 82.4399 10.1862C82.6917 10.646 83.0421 11.0074 83.4911 11.2702C83.94 11.522 84.4382 11.648 84.9857 11.648Z" fill="white"/>
<path d="M95.5383 13.0277C94.6733 13.0277 93.8958 12.836 93.206 12.4528C92.5161 12.0695 91.9741 11.5439 91.5799 10.876C91.1967 10.1971 91.005 9.43061 91.005 8.57652C91.005 7.72242 91.1967 6.96141 91.5799 6.29346C91.9741 5.61457 92.5161 5.08897 93.206 4.71668C93.8958 4.33343 94.6733 4.14181 95.5383 4.14181C96.4033 4.14181 97.1753 4.33343 97.8542 4.71668C98.544 5.08897 99.0806 5.61457 99.4638 6.29346C99.858 6.96141 100.055 7.72242 100.055 8.57652C100.055 9.43061 99.858 10.1971 99.4638 10.876C99.0806 11.5439 98.544 12.0695 97.8542 12.4528C97.1753 12.836 96.4033 13.0277 95.5383 13.0277ZM95.5383 11.648C96.0967 11.648 96.595 11.522 97.033 11.2702C97.4819 11.0074 97.8323 10.646 98.0841 10.1862C98.336 9.71531 98.4619 9.17876 98.4619 8.57652C98.4619 7.97427 98.336 7.4432 98.0841 6.98331C97.8323 6.51246 97.4819 6.15111 97.033 5.89926C96.595 5.64742 96.0967 5.52149 95.5383 5.52149C94.9799 5.52149 94.4762 5.64742 94.0272 5.89926C93.5892 6.15111 93.2388 6.51246 92.976 6.98331C92.7242 7.4432 92.5982 7.97427 92.5982 8.57652C92.5982 9.17876 92.7242 9.71531 92.976 10.1862C93.2388 10.646 93.5892 11.0074 94.0272 11.2702C94.4762 11.522 94.9799 11.648 95.5383 11.648Z" fill="white"/>
<path d="M113.32 8.56009C113.32 9.90693 112.871 10.9691 111.973 11.7465C111.076 12.524 109.811 12.9565 108.179 13.0441V16.1155H106.635V13.0441C105.004 12.9565 103.739 12.5294 102.841 11.7629C101.954 10.9855 101.511 9.91788 101.511 8.56009C101.511 7.21325 101.954 6.16206 102.841 5.40652C103.728 4.65098 104.993 4.22941 106.635 4.14181V0.741862H108.179V4.14181C109.811 4.22941 111.076 4.65645 111.973 5.42294C112.871 6.17849 113.32 7.2242 113.32 8.56009ZM103.071 8.56009C103.071 9.49083 103.367 10.219 103.958 10.7446C104.56 11.2702 105.453 11.5713 106.635 11.648V5.53792C105.442 5.61457 104.549 5.91021 103.958 6.42486C103.367 6.93951 103.071 7.65125 103.071 8.56009ZM108.179 11.6644C110.566 11.4782 111.76 10.4435 111.76 8.56009C111.76 7.6403 111.459 6.92856 110.857 6.42486C110.254 5.91021 109.362 5.61457 108.179 5.53792V11.6644Z" fill="white"/>
<path d="M115.549 4.22393H117.126V10.5639L122.464 4.22393H123.893V12.9291H122.316V6.58911L116.994 12.9291H115.549V4.22393Z" fill="white"/>
<path d="M131.388 4.51958C132.198 4.51958 132.921 4.70025 133.556 5.0616C134.191 5.42294 134.684 5.92664 135.034 6.57268C135.396 7.20778 135.576 7.93595 135.576 8.75719C135.576 9.60033 135.385 10.3504 135.001 11.0074C134.629 11.6534 134.098 12.1571 133.408 12.5185C132.729 12.8798 131.952 13.0605 131.076 13.0605C129.598 13.0605 128.453 12.5568 127.643 11.5494C126.844 10.5311 126.444 9.10211 126.444 7.26253C126.444 5.47769 126.811 4.08158 127.545 3.07419C128.278 2.05585 129.401 1.38243 130.912 1.05393L134.886 0.166992L135.116 1.61238L131.454 2.40077C130.315 2.65262 129.466 3.07967 128.908 3.68191C128.349 4.28415 128.032 5.1492 127.955 6.27704C128.327 5.71859 128.809 5.28607 129.401 4.97947C129.992 4.67288 130.654 4.51958 131.388 4.51958ZM131.109 11.7465C131.667 11.7465 132.16 11.6206 132.587 11.3687C133.025 11.1169 133.364 10.772 133.605 10.334C133.846 9.88503 133.967 9.37586 133.967 8.80646C133.967 7.94142 133.704 7.2461 133.178 6.72051C132.653 6.19491 131.963 5.93211 131.109 5.93211C130.255 5.93211 129.559 6.19491 129.023 6.72051C128.497 7.2461 128.234 7.94142 128.234 8.80646C128.234 9.37586 128.355 9.88503 128.596 10.334C128.848 10.772 129.193 11.1169 129.631 11.3687C130.068 11.6206 130.561 11.7465 131.109 11.7465Z" fill="white"/>
<path d="M142.444 4.14181C143.287 4.14181 144.042 4.32795 144.71 4.70025C145.378 5.07255 145.898 5.59267 146.271 6.26061C146.654 6.92856 146.846 7.70052 146.846 8.57652C146.846 9.45251 146.654 10.23 146.271 10.9088C145.898 11.5768 145.378 12.0969 144.71 12.4692C144.042 12.8415 143.287 13.0277 142.444 13.0277C141.82 13.0277 141.245 12.9072 140.719 12.6663C140.204 12.4254 139.766 12.075 139.405 11.6151V16.1155H137.828V4.22393H139.339V5.60362C139.69 5.12182 140.133 4.76048 140.67 4.51958C141.206 4.26773 141.798 4.14181 142.444 4.14181ZM142.312 11.648C142.871 11.648 143.369 11.522 143.807 11.2702C144.256 11.0074 144.606 10.646 144.858 10.1862C145.121 9.71531 145.252 9.17876 145.252 8.57652C145.252 7.97427 145.121 7.4432 144.858 6.98331C144.606 6.51246 144.256 6.15111 143.807 5.89926C143.369 5.64742 142.871 5.52149 142.312 5.52149C141.765 5.52149 141.267 5.65289 140.818 5.91569C140.38 6.16754 140.029 6.52341 139.766 6.98331C139.515 7.4432 139.389 7.97427 139.389 8.57652C139.389 9.17876 139.515 9.71531 139.766 10.1862C140.018 10.646 140.369 11.0074 140.818 11.2702C141.267 11.522 141.765 11.648 142.312 11.648Z" fill="white"/>
<path d="M152.161 4.14181C153.365 4.14181 154.285 4.43745 154.92 5.02875C155.566 5.62004 155.889 6.50151 155.889 7.67315V12.9291H154.394V11.7794C154.132 12.1845 153.754 12.4966 153.261 12.7156C152.779 12.9236 152.204 13.0277 151.536 13.0277C150.562 13.0277 149.779 12.7922 149.188 12.3214C148.607 11.8505 148.317 11.2319 148.317 10.4654C148.317 9.69888 148.596 9.08569 149.155 8.62579C149.713 8.15494 150.6 7.91952 151.816 7.91952H154.312V7.60745C154.312 6.92856 154.115 6.40844 153.721 6.04709C153.327 5.68574 152.746 5.50507 151.98 5.50507C151.465 5.50507 150.962 5.59267 150.469 5.76787C149.976 5.93211 149.56 6.15659 149.22 6.44129L148.563 5.2587C149.012 4.89735 149.549 4.6236 150.173 4.43745C150.797 4.24035 151.46 4.14181 152.161 4.14181ZM151.799 11.8122C152.401 11.8122 152.922 11.6808 153.36 11.418C153.798 11.1443 154.115 10.761 154.312 10.2683V9.05284H151.881C150.545 9.05284 149.877 9.50178 149.877 10.3997C149.877 10.8377 150.047 11.1826 150.387 11.4344C150.726 11.6863 151.197 11.8122 151.799 11.8122Z" fill="white"/>
<path d="M159.09 10.7774C159.396 10.7774 159.648 10.8869 159.845 11.1059C160.053 11.314 160.157 11.5768 160.157 11.8943C160.157 12.0586 160.135 12.2174 160.092 12.3707C160.059 12.524 159.988 12.7594 159.878 13.0769L159.106 15.36H158.071L158.679 12.9127C158.471 12.836 158.301 12.7101 158.17 12.5349C158.049 12.3488 157.989 12.1352 157.989 11.8943C157.989 11.5658 158.093 11.2976 158.301 11.0895C158.509 10.8815 158.772 10.7774 159.09 10.7774Z" fill="white"/>
<path d="M173.348 5.60362H170.162V12.9291H168.585V5.60362H165.399V4.22393H173.348V5.60362Z" fill="white"/>
<path d="M178.304 13.0277C177.439 13.0277 176.662 12.836 175.972 12.4528C175.282 12.0695 174.74 11.5439 174.346 10.876C173.963 10.1971 173.771 9.43061 173.771 8.57652C173.771 7.72242 173.963 6.96141 174.346 6.29346C174.74 5.61457 175.282 5.08897 175.972 4.71668C176.662 4.33343 177.439 4.14181 178.304 4.14181C179.169 4.14181 179.941 4.33343 180.62 4.71668C181.31 5.08897 181.846 5.61457 182.23 6.29346C182.624 6.96141 182.821 7.72242 182.821 8.57652C182.821 9.43061 182.624 10.1971 182.23 10.876C181.846 11.5439 181.31 12.0695 180.62 12.4528C179.941 12.836 179.169 13.0277 178.304 13.0277ZM178.304 11.648C178.863 11.648 179.361 11.522 179.799 11.2702C180.248 11.0074 180.598 10.646 180.85 10.1862C181.102 9.71531 181.228 9.17876 181.228 8.57652C181.228 7.97427 181.102 7.4432 180.85 6.98331C180.598 6.51246 180.248 6.15111 179.799 5.89926C179.361 5.64742 178.863 5.52149 178.304 5.52149C177.746 5.52149 177.242 5.64742 176.793 5.89926C176.355 6.15111 176.005 6.51246 175.742 6.98331C175.49 7.4432 175.364 7.97427 175.364 8.57652C175.364 9.17876 175.49 9.71531 175.742 10.1862C176.005 10.646 176.355 11.0074 176.793 11.2702C177.242 11.522 177.746 11.648 178.304 11.648Z" fill="white"/>
</svg>
