<svg width="145" height="145" viewBox="0 0 145 145" fill="none" xmlns="http://www.w3.org/2000/svg">
<path d="M142.35 60.7319L128.421 34.0565C127.313 31.9583 125.43 30.3754 123.173 29.6449C120.916 28.9144 118.462 29.094 116.335 30.1454L103.149 36.7384H93.8677L75.178 28.2808C73.207 27.3899 70.9824 27.2326 68.9056 27.8373L41.3375 35.8746L28.6642 29.5382C26.5371 28.4875 24.0839 28.3083 21.8267 29.0387C19.5695 29.7692 17.6864 31.3516 16.5782 33.4493L2.64856 60.1253C2.09163 61.1921 1.75273 62.3592 1.65165 63.5583C1.55058 64.7575 1.68933 65.9648 2.05983 67.1098C2.43034 68.2548 3.02516 69.3145 3.80959 70.2272C4.59403 71.1398 5.55237 71.8871 6.6287 72.4254L20.2224 79.2223L50.8242 103.152C51.8234 103.935 52.9769 104.498 54.2091 104.805L87.0363 113.012C87.7486 113.19 88.48 113.279 89.2141 113.279C91.623 113.279 93.9342 112.326 95.6428 110.628L116.485 89.7857C116.508 89.7637 116.527 89.7393 116.548 89.7172L116.633 89.6266C116.663 89.5926 116.695 89.5609 116.725 89.5263L125.191 79.6222L138.37 73.0326C139.447 72.4942 140.405 71.7469 141.189 70.8342C141.974 69.9215 142.569 68.8617 142.939 67.7167C143.31 66.5717 143.448 65.3643 143.347 64.1651C143.246 62.9659 142.907 61.7988 142.35 60.7319ZM112.558 80.4536L91.0238 64.7925C90.2402 64.2224 89.2944 63.9187 88.3254 63.9258C87.3564 63.9329 86.4152 64.2506 85.6401 64.8321L78.3901 70.2696C76.0325 72.0236 73.1723 72.9708 70.2338 72.9708C67.2954 72.9708 64.4352 72.0236 62.0776 70.2696L59.0077 67.9666L81.1734 45.8003H92.8663L92.8873 45.8015L92.9026 45.8003H101.472L116.909 75.3633L112.558 80.4536ZM24.6121 37.6435L34.6296 42.6528L20.6999 69.3283L10.6819 64.3195L24.6121 37.6435ZM89.2345 104.22L56.4073 96.0128L28.4183 74.1269L43.845 44.5831L71.4426 36.5379L75.8039 38.5112C75.4363 38.7789 75.089 39.0735 74.7651 39.3926L52.5988 61.5589C51.6808 62.477 50.9707 63.5817 50.5168 64.7981C50.0628 66.0145 49.8755 67.3142 49.9676 68.6093C50.0596 69.9044 50.4289 71.1646 51.0503 72.3045C51.6718 73.4445 52.5309 74.4376 53.5696 75.2166L56.6401 77.5185C60.5693 80.442 65.3364 82.0208 70.2338 82.0208C75.1313 82.0208 79.8984 80.442 83.8276 77.5185L88.4002 74.0895L106.327 87.127L89.2345 104.22ZM134.317 64.9267L124.299 69.936L110.369 43.2594L120.387 38.2513L134.322 64.9239L134.317 64.9267ZM67.8323 121.665C67.6886 122.243 67.4325 122.786 67.0784 123.265C66.7244 123.743 66.2795 124.147 65.7691 124.453C65.2588 124.76 64.693 124.962 64.1043 125.049C63.5155 125.137 62.9154 125.107 62.3381 124.962L45.2667 120.695C43.8817 120.346 42.5979 119.677 41.5188 118.742L28.7457 107.639C27.8443 106.849 27.2925 105.734 27.2113 104.538C27.13 103.342 27.5258 102.163 28.3121 101.258C29.0984 100.354 30.211 99.7975 31.4065 99.7114C32.602 99.6253 33.7829 100.016 34.6907 100.799L47.4649 111.902L64.5364 116.171C65.7021 116.462 66.7042 117.205 67.3224 118.235C67.9407 119.265 68.1243 120.499 67.8328 121.665L67.8323 121.665Z" fill="#FF772B"/>
</svg>
