<svg width="698" height="698" viewBox="0 0 698 698" fill="none" xmlns="http://www.w3.org/2000/svg">
<circle cx="349" cy="349" r="181.5" stroke="#FF772B"/>
<circle opacity="0.5" cx="349" cy="349" r="348.5" stroke="#FF772B"/>
<path fill-rule="evenodd" clip-rule="evenodd" d="M318.432 307.125H379.568C380.791 307.126 381.994 307.44 383.061 308.037C384.128 308.634 385.025 309.493 385.666 310.533C385.667 310.534 385.667 310.534 385.667 310.535L401.355 335.858C402.128 337.108 402.502 338.564 402.428 340.032C402.354 341.5 401.834 342.91 400.939 344.076L400.935 344.081L354.683 404.071C354.682 404.073 354.682 404.074 354.681 404.075C354.012 404.945 353.153 405.65 352.169 406.136C351.183 406.622 350.099 406.875 349 406.875C347.901 406.875 346.817 406.622 345.832 406.136C344.848 405.65 343.988 404.945 343.32 404.075C343.319 404.074 343.318 404.073 343.317 404.071L297.065 344.081L297.061 344.076C296.166 342.91 295.647 341.5 295.572 340.032C295.498 338.564 295.872 337.108 296.645 335.858L312.333 310.535C312.334 310.534 312.335 310.532 312.335 310.531C312.977 309.492 313.873 308.633 314.939 308.037C316.007 307.44 317.209 307.126 318.432 307.125ZM302.711 339.735C302.711 339.736 302.712 339.736 302.712 339.736L348.965 399.728L348.97 399.735C348.974 399.739 348.978 399.743 348.983 399.746C348.989 399.748 348.994 399.75 349 399.75C349.006 399.75 349.012 399.748 349.017 399.746C349.022 399.743 349.027 399.739 349.03 399.735L349.035 399.728L395.288 339.736C395.289 339.736 395.289 339.735 395.289 339.735C395.303 339.717 395.311 339.694 395.312 339.671C395.313 339.648 395.307 339.625 395.295 339.605L379.602 314.273C379.597 314.266 379.591 314.26 379.584 314.256C379.577 314.252 379.569 314.25 379.561 314.25H318.44C318.431 314.25 318.423 314.252 318.416 314.256C318.409 314.26 318.403 314.266 318.398 314.273L318.394 314.28L302.705 339.605C302.705 339.605 302.705 339.605 302.705 339.605C302.693 339.625 302.687 339.648 302.688 339.671C302.689 339.695 302.697 339.717 302.711 339.735Z" fill="#FF772B"/>
<path fill-rule="evenodd" clip-rule="evenodd" d="M299.125 339.188C299.125 337.22 300.72 335.625 302.688 335.625H395.312C397.28 335.625 398.875 337.22 398.875 339.188C398.875 341.155 397.28 342.75 395.312 342.75H302.688C300.72 342.75 299.125 341.155 299.125 339.188Z" fill="#FF772B"/>
<path fill-rule="evenodd" clip-rule="evenodd" d="M346.862 307.838C348.436 306.657 350.669 306.976 351.849 308.55L369.527 332.121L377.787 312.847C378.562 311.038 380.657 310.201 382.465 310.976C384.274 311.751 385.111 313.845 384.336 315.654L373.649 340.591C373.148 341.76 372.061 342.573 370.798 342.725C369.535 342.876 368.287 342.343 367.524 341.325L346.149 312.825C344.969 311.251 345.288 309.018 346.862 307.838Z" fill="#FF772B"/>
<path fill-rule="evenodd" clip-rule="evenodd" d="M351.137 307.838C352.711 309.018 353.03 311.251 351.85 312.825L330.475 341.325C329.712 342.343 328.464 342.876 327.201 342.725C325.938 342.573 324.851 341.76 324.35 340.591L313.663 315.654C312.888 313.845 313.726 311.751 315.534 310.976C317.342 310.201 319.437 311.038 320.212 312.847L328.472 332.121L346.15 308.55C347.33 306.976 349.563 306.657 351.137 307.838Z" fill="#FF772B"/>
<path fill-rule="evenodd" clip-rule="evenodd" d="M326.439 335.828C328.294 335.173 330.329 336.146 330.984 338.002L352.359 398.564C353.014 400.42 352.041 402.455 350.185 403.109C348.33 403.764 346.295 402.791 345.64 400.936L324.265 340.373C323.61 338.518 324.584 336.483 326.439 335.828Z" fill="#FF772B"/>
<path fill-rule="evenodd" clip-rule="evenodd" d="M371.56 335.828C373.416 336.483 374.389 338.518 373.734 340.373L352.359 400.936C351.704 402.791 349.669 403.764 347.814 403.109C345.959 402.455 344.985 400.42 345.64 398.564L367.015 338.002C367.67 336.146 369.705 335.173 371.56 335.828Z" fill="#FF772B"/>
<circle r="3.5" transform="matrix(-1 0 0 1 498.5 451.5)" fill="#FF772A"/>
<circle r="3.5" transform="matrix(-1 0 0 1 191.5 258.5)" fill="#FF772A"/>
<circle r="3.5" transform="matrix(-1 0 0 1 546.5 634.5)" fill="#FFD0B5"/>
<circle r="3.5" transform="matrix(-1 0 0 1 53.5 532.5)" fill="#FFD0B5"/>
</svg>
