<svg width="155" height="25" fill="none" xmlns="http://www.w3.org/2000/svg">
  <path d="M18.4 12.3c-3.37 0-6.11 2.69-6.11 6v6h6.1c3.37 0 6.1-2.7 6.1-6 0-3.31-2.73-6-6.1-6ZM6.18 12.3c-3.36 0-6.1 2.69-6.1 6v6h6.1c3.37 0 6.1-2.7 6.1-6 0-3.31-2.73-6-6.1-6Z" fill="white"/>
  <path d="M18.4 12.34c-3.37 0-6.11-2.7-6.11-6v-6h6.1c3.37 0 6.1 2.7 6.1 6s-2.73 6-6.1 6ZM6.18 12.34c-3.36 0-6.1-2.7-6.1-6v-6h6.1c3.37 0 6.1 2.7 6.1 6s-2.73 6-6.1 6Z" fill="white"/>
  <path d="M35.38 7.18V.34H30.6v22.42s3.29 2.03 8.5 2.03c6.65 0 10.44-4.84 10.44-9.6 0-2.74-.98-5.04-2.81-6.93-2.27-2.23-7.24-4-11.35-1.08Zm7.78 11.65c-2.3 2.31-5.79 1.77-7.78.89v-7.5a5.44 5.44 0 0 1 4.18-2.11c1.45 0 2.66.57 3.6 1.53.94.97 1.41 2.16 1.41 3.58 0 1.46-.47 2.65-1.4 3.61ZM70.4 10.07a5.1 5.1 0 0 1 4.46 2.57l3.96-2.57a9.85 9.85 0 0 0-8.46-4.65 9.8 9.8 0 0 0-9.9 9.72 9.8 9.8 0 0 0 9.9 9.73c3.56 0 6.7-1.88 8.46-4.65l-3.96-2.58a5.15 5.15 0 0 1-4.46 2.58 5.12 5.12 0 0 1-5.16-5.08c0-2.8 2.3-5.07 5.16-5.07ZM90.2 5.38a9.8 9.8 0 0 0-9.9 9.72 9.8 9.8 0 0 0 9.9 9.73 9.8 9.8 0 0 0 9.9-9.73 9.8 9.8 0 0 0-9.9-9.72Zm0 14.8a5.12 5.12 0 0 1-5.16-5.08c0-2.8 2.3-5.07 5.16-5.07a5.12 5.12 0 0 1 5.17 5.07c0 2.81-2.3 5.08-5.17 5.08ZM57.45 5.88h-4.82v18.41h4.82V5.88ZM57.45.3h-4.82V4h4.82V.3ZM111.34 20.49c-2.23 0-3.33-1.23-3.33-3.73v-6.3h4.23V5.87H108V.3h-4.81v16.46c0 2.69.66 4.69 2.03 6.07 1.37 1.39 3.33 2.04 5.87 1.96 1.1 0 2.2-.19 3.33-.54l-1.45-4.03c-.63.19-1.14.27-1.64.27ZM125.23 5.38c-2.9 0-5.28.92-7.12 2.77a9.42 9.42 0 0 0-2.78 6.92c0 2.8.94 5.11 2.82 6.95 1.87 1.85 4.34 2.77 7.43 2.77 3.17 0 5.68-1.04 7.48-3.11l-3.8-2.46c-.9.8-2.11 1.27-3.6 1.27-2.86 0-4.77-1.39-5.28-3.7h14.16s1.25-4.76-2.54-8.64a9.1 9.1 0 0 0-6.77-2.77Zm-4.9 8.23c.2-1.23.83-2.31 1.69-2.96a5.12 5.12 0 0 1 3.2-.97c1.1 0 2.08.31 2.94.93a4.58 4.58 0 0 1 1.73 3.03h-9.55v-.03Z" fill="white"/>
  <path d="m147.46 14.87 6.53-9h-5.55l-3.76 5.2-3.8-5.2h-5.6l6.58 9.04-6.85 9.38h5.56l4.1-5.57 4.04 5.57h5.6l-6.85-9.42Z" fill="white"/>
</svg>
