<svg width="68" height="15" viewBox="0 0 68 15" fill="none" xmlns="http://www.w3.org/2000/svg">
<path fill-rule="evenodd" clip-rule="evenodd" d="M8.18068 0.0393439C6.65926 -0.115387 5.12555 0.188638 3.79035 0.909632C2.45516 1.63063 1.38403 2.73319 0.724192 4.06578C0.064354 5.39837 -0.1518 6.89557 0.105442 8.35158C0.362683 9.80759 1.08069 11.1509 2.16078 12.197C3.24086 13.243 4.63 13.9404 6.13725 14.1933C7.6445 14.4461 9.19587 14.2421 10.5781 13.6091C11.9604 12.9762 13.1057 11.9454 13.8566 10.6586C14.6075 9.37168 14.9271 7.89184 14.7715 6.42245C14.6004 4.78913 13.8515 3.26265 12.651 2.10003C11.4506 0.937405 9.87184 0.209665 8.18068 0.0393439ZM7.94073 10.9329C7.12247 11.0389 6.29037 10.8946 5.5614 10.5205C4.83242 10.1463 4.2432 9.56096 3.87656 8.84678C3.50992 8.13259 3.38429 7.32543 3.51732 6.53874C3.65035 5.75205 4.03535 5.02538 4.61822 4.46087C5.20109 3.89635 5.95252 3.52236 6.76691 3.39146C7.5813 3.26056 8.4177 3.37933 9.15856 3.73108C9.89942 4.08283 10.5075 4.64988 10.8973 5.35253C11.2872 6.05517 11.4392 6.85809 11.3319 7.64845C11.2194 8.47977 10.8262 9.25209 10.2132 9.84584C9.6001 10.4396 8.8014 10.8217 7.94073 10.9329ZM18.7321 0.322183C18.4753 0.322776 18.2218 0.378643 17.9902 0.485719C17.7585 0.592794 17.5545 0.748385 17.393 0.941168C17.2315 1.13395 17.1165 1.35908 17.0564 1.60017C16.9964 1.84126 16.9927 2.09224 17.0458 2.33486C17.2082 3.12087 17.9687 3.65792 18.797 3.65792H23.6042L16.1231 13.2164C16.0678 13.287 16.0339 13.371 16.0253 13.4591C16.0167 13.5472 16.0336 13.6359 16.0743 13.7152C16.115 13.7946 16.1777 13.8614 16.2555 13.9082C16.3333 13.9551 16.423 13.98 16.5147 13.9804H28.2494C29.0772 13.9804 29.8382 13.4435 30.0007 12.6573C30.0537 12.4147 30.0501 12.1638 29.9901 11.9227C29.9301 11.6817 29.8151 11.4566 29.6537 11.2638C29.4922 11.071 29.2883 10.9153 29.0567 10.8082C28.8252 10.701 28.5718 10.6451 28.315 10.6444H22.4578L29.9331 1.09334C29.989 1.02209 30.0232 0.937217 30.0319 0.848246C30.0406 0.759275 30.0234 0.669725 29.9823 0.589643C29.9413 0.50956 29.8779 0.442114 29.7993 0.394871C29.7207 0.347628 29.6301 0.322457 29.5375 0.322183H18.7321ZM65.6233 0.36066C65.2348 0.449853 64.8895 0.664386 64.6444 0.968789C64.3993 1.27319 64.2692 1.64923 64.2755 2.03474V7.58864L54.9544 0.427083C54.8813 0.371062 54.7933 0.336102 54.7005 0.326224C54.6078 0.316347 54.514 0.331953 54.43 0.371248C54.346 0.410543 54.2753 0.471929 54.2258 0.548346C54.1764 0.624763 54.1503 0.713106 54.1505 0.803211V12.2708C54.1442 12.6563 54.2743 13.0324 54.5194 13.3368C54.7645 13.6412 55.1098 13.8557 55.4983 13.9449C55.7506 13.9985 56.0121 13.9967 56.2636 13.9397C56.5151 13.8827 56.7501 13.7719 56.9513 13.6155C57.1525 13.4591 57.3148 13.2611 57.4262 13.0361C57.5376 12.8111 57.5952 12.5648 57.5948 12.3154V6.71339L66.9161 13.8751C66.9891 13.9311 67.0771 13.966 67.1698 13.9759C67.2625 13.9857 67.3563 13.9701 67.4402 13.9309C67.5242 13.8916 67.5949 13.8302 67.6444 13.7538C67.6938 13.6775 67.7199 13.5892 67.7197 13.4991V1.98965C67.7199 1.74031 67.6623 1.49409 67.5508 1.26914C67.4394 1.0442 67.2772 0.846258 67.076 0.689926C66.8748 0.533593 66.6398 0.42285 66.3884 0.365863C66.137 0.308876 65.8755 0.307098 65.6233 0.36066ZM41.3538 3.33863C45.2963 3.33863 48.2422 5.35023 48.2422 7.1496C48.2422 8.94897 45.2963 10.9606 41.3538 10.9606C37.4112 10.9606 34.4654 8.94897 34.4654 7.1496C34.4654 5.35023 37.4112 3.33863 41.3538 3.33863ZM41.3538 0.00302718C35.6471 0.00302718 31.021 3.20268 31.021 7.1496C31.021 11.0965 35.6471 14.2962 41.3538 14.2962C47.0605 14.2962 51.6864 11.0965 51.6864 7.1496C51.6864 3.20268 47.0603 0.00302718 41.3538 0.00302718Z" fill="#0069FF"/>
</svg>
