<svg width="96" height="88" viewBox="0 0 96 88" fill="none" xmlns="http://www.w3.org/2000/svg">
<path fill-rule="evenodd" clip-rule="evenodd" d="M42.1724 11.5928C36.4782 16.1597 31.6738 21.6048 27.759 27.9281C23.8443 34.2515 22.2428 40.2236 22.9546 45.8443C29.0046 45.8443 34.165 47.9521 38.4356 52.1677C42.3503 56.3832 44.3077 61.4771 44.3077 67.4491C44.3077 73.4212 42.3503 78.3393 38.4356 82.2036C34.165 86.0679 29.0046 88 22.9546 88C16.1928 88 10.6765 85.5409 6.40593 80.6228C2.13531 75.7046 0 68.503 0 59.018C0 49.1816 3.20296 38.4671 9.60889 26.8743C16.0148 15.2814 24.0222 6.32336 33.6311 0L42.1724 11.5928ZM93.8647 11.5928C88.1705 16.1597 83.3661 21.6048 79.4513 27.9281C75.5366 34.2515 73.9351 40.2236 74.6469 45.8443C80.6969 45.8443 85.8573 47.9521 90.1279 52.1677C94.0426 56.3832 96 61.4771 96 67.4491C96 73.4212 94.0426 78.3393 90.1279 82.2036C85.8573 86.0679 80.6969 88 74.6469 88C67.8851 88 62.3689 85.5409 58.0982 80.6228C53.8276 75.7046 51.6923 68.503 51.6923 59.018C51.6923 49.1816 54.8953 38.4671 61.3012 26.8743C67.7071 15.2814 75.7145 6.32336 85.3234 0L93.8647 11.5928Z" fill="#FF772B"/>
</svg>
