<svg width="46" height="46" viewBox="0 0 46 46" fill="none" xmlns="http://www.w3.org/2000/svg">
<path fill-rule="evenodd" clip-rule="evenodd" d="M5.75 19.6875C5.63397 19.6875 5.52269 19.7336 5.44064 19.8156C5.35859 19.8977 5.3125 20.009 5.3125 20.125V35.9375C5.3125 36.0535 5.35859 36.1648 5.44064 36.2469C5.52269 36.3289 5.63397 36.375 5.75 36.375H13.375V19.6875H5.75ZM5.75 17.6875H14.375C14.9273 17.6875 15.375 18.1352 15.375 18.6875V37.375C15.375 37.9273 14.9273 38.375 14.375 38.375H5.75C5.10354 38.375 4.48355 38.1182 4.02643 37.6611C3.56931 37.2039 3.3125 36.584 3.3125 35.9375V20.125C3.3125 19.4785 3.56931 18.8585 4.02643 18.4014C4.48355 17.9443 5.10353 17.6875 5.75 17.6875Z" fill="#FF772B"/>
<path fill-rule="evenodd" clip-rule="evenodd" d="M20.6681 3.86529C20.8375 3.5265 21.1837 3.3125 21.5625 3.3125C22.4489 3.3125 23.3267 3.48709 24.1456 3.82631C24.9646 4.16553 25.7087 4.66273 26.3355 5.28953C26.9623 5.91632 27.4595 6.66044 27.7987 7.47939C28.1379 8.29834 28.3125 9.17608 28.3125 10.0625V13.375H38.4308C38.9802 13.375 39.5234 13.4918 40.0242 13.7178C40.5251 13.9437 40.9721 14.2736 41.3358 14.6855C41.6994 15.0974 41.9713 15.582 42.1333 16.107C42.2954 16.632 42.344 17.1854 42.2758 17.7306L40.1196 34.9806C40.0024 35.9178 39.547 36.7799 38.839 37.405C38.1309 38.0301 37.219 38.375 36.2745 38.375H14.375C13.8227 38.375 13.375 37.9273 13.375 37.375C13.375 36.8227 13.8227 36.375 14.375 36.375H36.2745C36.7315 36.375 37.1728 36.2081 37.5154 35.9056C37.858 35.6032 38.0783 35.186 38.135 34.7326L40.2913 17.4826C40.3242 17.2188 40.3007 16.9509 40.2223 16.6969C40.1439 16.4429 40.0123 16.2084 39.8364 16.0091C39.6604 15.8098 39.4441 15.6502 39.2018 15.5409C38.9594 15.4315 38.6966 15.375 38.4308 15.375H27.3125C26.7602 15.375 26.3125 14.9273 26.3125 14.375V10.0625C26.3125 9.43872 26.1896 8.82105 25.9509 8.24475C25.7122 7.66846 25.3623 7.14482 24.9213 6.70374C24.4802 6.26266 23.9565 5.91278 23.3802 5.67407C22.9894 5.51217 22.5795 5.40356 22.1616 5.35043L15.2694 19.1347C15.0224 19.6287 14.4218 19.8289 13.9278 19.5819C13.4338 19.3349 13.2336 18.7343 13.4806 18.2403L20.6681 3.86529Z" fill="#FF772B"/>
</svg>
