<svg width="46" height="46" viewBox="0 0 46 46" fill="none" xmlns="http://www.w3.org/2000/svg">
<path fill-rule="evenodd" clip-rule="evenodd" d="M38.3266 11.7182C38.2175 11.6829 38.0989 11.6918 37.9963 11.7431L34.4199 13.5313L39.244 22.7698L42.8066 20.9885C42.8586 20.9625 42.9049 20.9264 42.9427 20.8824C42.9806 20.8383 43.0093 20.7872 43.0272 20.7319C43.0451 20.6766 43.0518 20.6183 43.0469 20.5604C43.042 20.5025 43.0257 20.4462 42.9988 20.3947L38.5797 11.9319C38.5266 11.8303 38.4357 11.7535 38.3266 11.7182ZM37.1018 9.95428C37.6734 9.66849 38.3344 9.6186 38.9424 9.81535C39.5504 10.0121 40.0568 10.4397 40.3526 11.0062L44.7716 19.4689C44.9215 19.7559 45.0126 20.0698 45.0398 20.3924C45.067 20.7149 45.0297 21.0396 44.9301 21.3476C44.8304 21.6556 44.6704 21.9407 44.4594 22.1861C44.2484 22.4316 43.9906 22.6326 43.701 22.7774L39.2596 24.9981C38.7717 25.242 38.1784 25.05 37.926 24.5665L32.176 13.5549C32.0518 13.3171 32.0284 13.0394 32.111 12.7842C32.1935 12.5289 32.3752 12.3176 32.6152 12.1976L37.1018 9.95428Z" fill="#FF772B"/>
<path fill-rule="evenodd" clip-rule="evenodd" d="M8.00337 11.5505C7.90078 11.4992 7.78215 11.4902 7.67302 11.5255C7.56389 11.5608 7.473 11.6376 7.41991 11.7393L3.00086 20.202C2.97397 20.2535 2.9576 20.3099 2.95272 20.3678C2.94784 20.4257 2.95454 20.4839 2.97242 20.5392C2.99031 20.5945 3.01903 20.6457 3.0569 20.6897C3.09478 20.7338 3.14105 20.7699 3.19302 20.7958L6.75563 22.5771L11.5797 13.3386L8.00337 11.5505ZM8.8978 9.76161L13.3845 12.0049C13.6244 12.1249 13.8061 12.3363 13.8887 12.5915C13.9713 12.8467 13.9479 13.1244 13.8237 13.3622L8.07368 24.3739C7.82122 24.8573 7.22789 25.0493 6.74004 24.8054L2.29859 22.5847C2.00906 22.4399 1.75127 22.2389 1.54025 21.9935C1.32924 21.748 1.16923 21.4629 1.06957 21.155C0.969909 20.847 0.932591 20.5222 0.959794 20.1997C0.986997 19.8771 1.07818 19.5632 1.22801 19.2763L5.64705 10.8135C5.64705 10.8135 5.64705 10.8135 5.64705 10.8135C5.94284 10.2471 6.44926 9.81942 7.05726 9.62268C7.66526 9.42593 8.32622 9.47582 8.8978 9.76161Z" fill="#FF772B"/>
<path fill-rule="evenodd" clip-rule="evenodd" d="M6.39962 23.295C6.73983 22.8599 7.36831 22.783 7.80337 23.1232L17.6253 30.8036C17.6736 30.8413 17.7292 30.8685 17.7887 30.8834L28.2028 33.4869C28.2761 33.5052 28.3529 33.5043 28.4257 33.4841C28.4985 33.4639 28.5649 33.4253 28.6183 33.3719L35.2026 26.7875L38.0522 23.4538C38.4111 23.034 39.0423 22.9846 39.4621 23.3434C39.882 23.7023 39.9314 24.3335 39.5725 24.7533L36.6975 28.1167C36.6806 28.1365 36.6629 28.1557 36.6445 28.1741L30.0325 34.7861C29.7349 35.0837 29.3652 35.2992 28.9596 35.4115C28.5539 35.5239 28.1261 35.5293 27.7177 35.4272L17.3036 32.8237C16.9724 32.7409 16.6623 32.5894 16.3933 32.3791L6.57139 24.6987C6.13632 24.3585 6.05942 23.7301 6.39962 23.295Z" fill="#FF772B"/>
<path fill-rule="evenodd" clip-rule="evenodd" d="M25.7502 14.0918C25.6928 14.0918 25.6359 14.1032 25.5828 14.1251C25.5297 14.1471 25.4815 14.1794 25.4409 14.22L18.4089 21.252C18.3646 21.2963 18.3303 21.3496 18.3084 21.4083C18.2865 21.4671 18.2774 21.5298 18.2819 21.5923C18.2863 21.6549 18.3041 21.7157 18.3341 21.7707C18.3641 21.8258 18.4056 21.8737 18.4558 21.9113L19.4298 22.6418C20.252 23.2585 21.252 23.5918 22.2798 23.5918C23.3076 23.5918 24.3076 23.2585 25.1298 22.6418L27.4298 20.9168C27.781 20.6534 28.2629 20.6499 28.618 20.9081L36.5242 26.6581C36.9709 26.9829 37.0696 27.6084 36.7448 28.055C36.42 28.5017 35.7945 28.6004 35.3479 28.2756L28.0389 22.96L26.3298 24.2418C25.1614 25.1181 23.7403 25.5918 22.2798 25.5918C20.8193 25.5918 19.3982 25.1181 18.2298 24.2418L17.2558 23.5113C16.9764 23.3018 16.7453 23.0347 16.5781 22.728C16.411 22.4214 16.3117 22.0825 16.2869 21.7341C16.2621 21.3858 16.3125 21.0362 16.4346 20.709C16.5568 20.3818 16.7477 20.0847 16.9947 19.8377L24.0267 12.8058C24.253 12.5794 24.5217 12.3999 24.8174 12.2774C25.1132 12.1549 25.4301 12.0918 25.7502 12.0918H33.0611C33.6133 12.0918 34.0611 12.5396 34.0611 13.0918C34.0611 13.6441 33.6133 14.0918 33.0611 14.0918H25.7502Z" fill="#FF772B"/>
<path fill-rule="evenodd" clip-rule="evenodd" d="M22.8455 11.1922C22.7504 11.1492 22.643 11.1416 22.5427 11.1708L13.3211 13.8592C12.7909 14.0138 12.2358 13.7093 12.0812 13.1791C11.9267 12.6488 12.2312 12.0937 12.7614 11.9391L21.9829 9.25074C22.5415 9.0879 23.1399 9.13023 23.67 9.37008L29.8815 12.1807C30.3847 12.4084 30.6081 13.0008 30.3804 13.504C30.1527 14.0072 29.5602 14.2305 29.0571 14.0028L22.8455 11.1922Z" fill="#FF772B"/>
<path fill-rule="evenodd" clip-rule="evenodd" d="M9.30765 32.406C9.66997 31.9892 10.3016 31.945 10.7184 32.3073L14.7708 35.8298C14.8229 35.8751 14.8849 35.9074 14.9517 35.9241L20.3674 37.278C20.9032 37.4119 21.229 37.9549 21.095 38.4907C20.9611 39.0265 20.4181 39.3522 19.8823 39.2183L14.4667 37.8644C14.094 37.7712 13.7487 37.5913 13.4588 37.3393L9.40634 33.8168C8.98952 33.4545 8.94533 32.8229 9.30765 32.406Z" fill="#FF772B"/>
</svg>
