<svg width="46" height="46" viewBox="0 0 46 46" fill="none" xmlns="http://www.w3.org/2000/svg">
<path fill-rule="evenodd" clip-rule="evenodd" d="M7.1875 32.625C5.35806 32.625 3.875 34.1081 3.875 35.9375C3.875 37.7669 5.35806 39.25 7.1875 39.25C9.01694 39.25 10.5 37.7669 10.5 35.9375C10.5 34.1081 9.01694 32.625 7.1875 32.625ZM1.875 35.9375C1.875 33.0035 4.25349 30.625 7.1875 30.625C10.1215 30.625 12.5 33.0035 12.5 35.9375C12.5 38.8715 10.1215 41.25 7.1875 41.25C4.25349 41.25 1.875 38.8715 1.875 35.9375Z" fill="#FF772B"/>
<path fill-rule="evenodd" clip-rule="evenodd" d="M17.25 13.9375C15.4206 13.9375 13.9375 15.4206 13.9375 17.25C13.9375 19.0794 15.4206 20.5625 17.25 20.5625C19.0794 20.5625 20.5625 19.0794 20.5625 17.25C20.5625 15.4206 19.0794 13.9375 17.25 13.9375ZM11.9375 17.25C11.9375 14.316 14.316 11.9375 17.25 11.9375C20.184 11.9375 22.5625 14.316 22.5625 17.25C22.5625 20.184 20.184 22.5625 17.25 22.5625C14.316 22.5625 11.9375 20.184 11.9375 17.25Z" fill="#FF772B"/>
<path fill-rule="evenodd" clip-rule="evenodd" d="M28.75 25.4375C26.9206 25.4375 25.4375 26.9206 25.4375 28.75C25.4375 30.5794 26.9206 32.0625 28.75 32.0625C30.5794 32.0625 32.0625 30.5794 32.0625 28.75C32.0625 26.9206 30.5794 25.4375 28.75 25.4375ZM23.4375 28.75C23.4375 25.816 25.816 23.4375 28.75 23.4375C31.684 23.4375 34.0625 25.816 34.0625 28.75C34.0625 31.684 31.684 34.0625 28.75 34.0625C25.816 34.0625 23.4375 31.684 23.4375 28.75Z" fill="#FF772B"/>
<path fill-rule="evenodd" clip-rule="evenodd" d="M38.8125 6.75C36.9831 6.75 35.5 8.23306 35.5 10.0625C35.5 11.8919 36.9831 13.375 38.8125 13.375C40.6419 13.375 42.125 11.8919 42.125 10.0625C42.125 8.23306 40.6419 6.75 38.8125 6.75ZM33.5 10.0625C33.5 7.12849 35.8785 4.75 38.8125 4.75C41.7465 4.75 44.125 7.12849 44.125 10.0625C44.125 12.9965 41.7465 15.375 38.8125 15.375C35.8785 15.375 33.5 12.9965 33.5 10.0625Z" fill="#FF772B"/>
<path fill-rule="evenodd" clip-rule="evenodd" d="M15.6785 20.1672C16.1648 20.429 16.3467 21.0355 16.0849 21.5218L10.1119 32.6144C9.85008 33.1007 9.24362 33.2826 8.75735 33.0208C8.27108 32.7589 8.08914 32.1525 8.35097 31.6662L14.3239 20.5736C14.5858 20.0873 15.1922 19.9053 15.6785 20.1672Z" fill="#FF772B"/>
<path fill-rule="evenodd" clip-rule="evenodd" d="M19.592 19.5923C19.9825 19.2018 20.6157 19.2018 21.0062 19.5923L26.4074 24.9935C26.7979 25.384 26.7979 26.0172 26.4074 26.4077C26.0169 26.7983 25.3837 26.7983 24.9932 26.4077L19.592 21.0065C19.2014 20.616 19.2014 19.9828 19.592 19.5923Z" fill="#FF772B"/>
<path fill-rule="evenodd" clip-rule="evenodd" d="M37.2412 12.9793C37.7275 13.2412 37.9094 13.8476 37.6476 14.3339L31.6744 25.4269C31.4126 25.9132 30.8061 26.0951 30.3198 25.8333C29.8336 25.5714 29.6516 24.965 29.9135 24.4787L35.8866 13.3857C36.1485 12.8994 36.7549 12.7175 37.2412 12.9793Z" fill="#FF772B"/>
</svg>
